<svg id="crown" xmlns="http://www.w3.org/2000/svg" width="75.543" height="48.312" viewBox="0 0 75.543 48.312">
  <path id="Path_1437" data-name="Path 1437" d="M90.532,84.873H42.359a2.224,2.224,0,0,1-1.838-.972c-6.356-9.321-6.844-27.25-6.88-29.912,0-.1,0-.21,0-.315a2.225,2.225,0,0,1,2.221-2.225h0a2.225,2.225,0,0,1,2.225,2.216c0,.015,0,.146.006.379a11.789,11.789,0,0,0,23.572-.371A2.225,2.225,0,0,1,63.89,51.45H69a2.225,2.225,0,0,1,2.225,2.225,11.789,11.789,0,0,0,23.574.353c0-.222.005-.347.005-.361a2.225,2.225,0,0,1,2.225-2.217h0a2.225,2.225,0,0,1,2.221,2.225c0,.105,0,.21,0,.315-.037,2.661-.525,20.591-6.88,29.912a2.225,2.225,0,0,1-1.838.971Zm0,0" transform="translate(-28.674 -43.859)" fill="#fff780"/>
  <path id="Path_1438" data-name="Path 1438" d="M286.591,51.449h0a2.225,2.225,0,0,0-2.225,2.216c0,.015,0,.139-.005.362a11.789,11.789,0,0,1-23.573-.353,2.225,2.225,0,0,0-2.225-2.225H256V84.871H280.09a2.224,2.224,0,0,0,1.838-.971c6.356-9.321,6.844-27.251,6.88-29.912,0-.1,0-.21,0-.315a2.226,2.226,0,0,0-2.221-2.225Zm0,0" transform="translate(-218.232 -43.858)" fill="#ffc02e"/>
  <path id="Path_1439" data-name="Path 1439" d="M214.469,0a7.188,7.188,0,1,0,7.188,7.188A7.2,7.2,0,0,0,214.469,0Zm0,0" transform="translate(-176.698 0)" fill="#ffc02e"/>
  <path id="Path_1440" data-name="Path 1440" d="M256,0V14.376A7.188,7.188,0,0,0,256,0Zm0,0" transform="translate(-218.232 0)" fill="#ffa73b"/>
  <path id="Path_1441" data-name="Path 1441" d="M7.188,37.6a7.188,7.188,0,1,0,7.188,7.188A7.2,7.2,0,0,0,7.188,37.6Zm0,0" transform="translate(0 -32.05)" fill="#ffc02e"/>
  <path id="Path_1442" data-name="Path 1442" d="M421.754,37.6a7.188,7.188,0,1,0,7.188,7.188A7.2,7.2,0,0,0,421.754,37.6Zm0,0" transform="translate(-353.399 -32.05)" fill="#ffa73b"/>
  <path id="Path_1443" data-name="Path 1443" d="M128.07,276.257H79.9a2.225,2.225,0,0,1-2.225-2.225V267.4h52.622v6.634a2.225,2.225,0,0,1-2.225,2.225Zm0,0" transform="translate(-66.212 -227.945)" fill="#ffc02e"/>
  <path id="Path_1444" data-name="Path 1444" d="M256,276.257H280.09a2.225,2.225,0,0,0,2.225-2.225V267.4H256Zm0,0" transform="translate(-218.232 -227.945)" fill="#ffa73b"/>
</svg>
