<svg id="delete" xmlns="http://www.w3.org/2000/svg" width="16.571" height="20.404" viewBox="0 0 16.571 20.404">
  <path id="Path_1445" data-name="Path 1445" d="M222.876,154.7a.478.478,0,0,0-.478.478v9.031a.478.478,0,0,0,.956,0v-9.031A.478.478,0,0,0,222.876,154.7Zm0,0" transform="translate(-211.771 -147.311)" fill="#2d81ca"/>
  <path id="Path_1446" data-name="Path 1446" d="M104.876,154.7a.478.478,0,0,0-.478.478v9.031a.478.478,0,0,0,.956,0v-9.031A.478.478,0,0,0,104.876,154.7Zm0,0" transform="translate(-99.409 -147.311)" fill="#2d81ca"/>
  <path id="Path_1447" data-name="Path 1447" d="M1.354,6.073V17.846a2.636,2.636,0,0,0,.7,1.818,2.353,2.353,0,0,0,1.707.738H12.8a2.353,2.353,0,0,0,1.707-.738,2.636,2.636,0,0,0,.7-1.818V6.073a1.825,1.825,0,0,0-.468-3.59H12.3v-.6A1.877,1.877,0,0,0,10.4,0H6.161A1.877,1.877,0,0,0,4.269,1.886v.6H1.822a1.825,1.825,0,0,0-.468,3.59ZM12.8,19.446H3.762a1.513,1.513,0,0,1-1.453-1.6V6.115H14.255V17.846a1.513,1.513,0,0,1-1.453,1.6ZM5.224,1.886A.921.921,0,0,1,6.161.954H10.4a.921.921,0,0,1,.937.932v.6H5.224Zm-3.4,1.553h12.92a.86.86,0,1,1,0,1.72H1.822a.86.86,0,1,1,0-1.72Zm0,0" transform="translate(0.003 0.002)" fill="#2d81ca"/>
  <path id="Path_1448" data-name="Path 1448" d="M163.876,154.7a.478.478,0,0,0-.478.478v9.031a.478.478,0,0,0,.956,0v-9.031A.478.478,0,0,0,163.876,154.7Zm0,0" transform="translate(-155.59 -147.311)" fill="#2d81ca"/>
</svg>
