<svg xmlns="http://www.w3.org/2000/svg" width="22.223" height="25.456" viewBox="0 0 22.223 25.456">
  <g id="product" transform="translate(-0.501)">
    <path id="Path_51" data-name="Path 51" d="M22.616,241.36a.746.746,0,0,0-.638-.36,6.3,6.3,0,0,0-5.367,2.983H7.766a3.7,3.7,0,0,0-2.637,1.092L.719,249.486a.746.746,0,0,0,0,1.055c1.811,1.811,3.712,3.7,3.731,3.716a.746.746,0,0,0,1.051,0l2.829-2.816h6.248a5.2,5.2,0,0,0,4.624-2.8c.023-.043,2.282-4.354,3.436-6.551a.746.746,0,0,0-.022-.733Zm-4.736,6.592a3.716,3.716,0,0,1-3.3,2H8.022a.746.746,0,0,0-.526.217l-2.521,2.51c-.594-.59-1.616-1.607-2.674-2.663l3.883-3.883a2.223,2.223,0,0,1,1.582-.655h8.044l-.572,1.092a.744.744,0,0,1-.661.4H9.514a.746.746,0,1,0,0,1.492h5.064a2.231,2.231,0,0,0,1.982-1.2l1.151-2.2a4.813,4.813,0,0,1,2.936-2.385c-1.19,2.267-2.747,5.238-2.766,5.274Zm0,0" transform="translate(0 -229.018)" fill="#fff"/>
    <path id="Path_52" data-name="Path 52" d="M122.531,13.474h8.949a.746.746,0,0,0,.746-.746v-9a.746.746,0,0,0-.746-.746h-2.237V2.237a2.237,2.237,0,0,0-4.475,0v.746h-2.237a.746.746,0,0,0-.746.746v9A.746.746,0,0,0,122.531,13.474ZM126.26,2.237a.746.746,0,1,1,1.492,0v.746H126.26Zm-2.983,2.237h1.492V5.22a.746.746,0,0,0,1.492,0V4.475h1.492V5.22a.746.746,0,0,0,1.492,0V4.475h1.492v7.507h-7.458Zm0,0" transform="translate(-115.254)" fill="#fff"/>
  </g>
</svg>
