<svg xmlns="http://www.w3.org/2000/svg" width="19.703" height="20" viewBox="0 0 19.703 20">
  <g id="settings" transform="translate(0 -0.001)">
    <g id="Group_38" data-name="Group 38" transform="translate(0 0.001)">
      <path id="Path_53" data-name="Path 53" d="M18.694,7.9l-1.383-.238A7.994,7.994,0,0,0,16.756,6.3l.815-1.157a1.246,1.246,0,0,0-.132-1.592L16.213,2.307a1.2,1.2,0,0,0-.86-.363,1.184,1.184,0,0,0-.7.23L13.5,3a7.663,7.663,0,0,0-1.391-.581l-.23-1.387A1.221,1.221,0,0,0,10.681,0H8.948a1.221,1.221,0,0,0-1.2,1.032L7.507,2.453a7.555,7.555,0,0,0-1.338.572L5.038,2.2a1.2,1.2,0,0,0-1.568.134L2.239,3.577a1.251,1.251,0,0,0-.132,1.592l.823,1.174a7.809,7.809,0,0,0-.547,1.366l-1.366.234A1.229,1.229,0,0,0,0,9.163v1.759a1.229,1.229,0,0,0,1.017,1.22l1.4.242a7.8,7.8,0,0,0,.564,1.358l-.811,1.145A1.246,1.246,0,0,0,2.3,16.479l1.227,1.245a1.2,1.2,0,0,0,.86.363,1.184,1.184,0,0,0,.7-.23l1.157-.836a7.722,7.722,0,0,0,1.3.543l.23,1.4A1.221,1.221,0,0,0,8.981,20h1.737a1.221,1.221,0,0,0,1.2-1.032l.235-1.4A7.744,7.744,0,0,0,13.5,17l1.14.827a1.2,1.2,0,0,0,.708.23h0a1.2,1.2,0,0,0,.86-.363l1.227-1.245a1.251,1.251,0,0,0,.132-1.592L16.748,13.7a7.936,7.936,0,0,0,.556-1.362l1.383-.234A1.229,1.229,0,0,0,19.7,10.88V9.122A1.214,1.214,0,0,0,18.694,7.9ZM18.6,10.88a.108.108,0,0,1-.091.109l-1.729.292a.556.556,0,0,0-.445.414,6.744,6.744,0,0,1-.716,1.751.572.572,0,0,0,.025.614l1.017,1.454a.115.115,0,0,1-.012.142L15.422,16.9a.1.1,0,0,1-.078.033.1.1,0,0,1-.062-.021l-1.428-1.032a.549.549,0,0,0-.605-.025,6.535,6.535,0,0,1-1.725.727.551.551,0,0,0-.407.451l-.292,1.755a.107.107,0,0,1-.107.092H8.985a.107.107,0,0,1-.107-.092L8.59,17.035a.558.558,0,0,0-.407-.451,6.785,6.785,0,0,1-1.688-.7.563.563,0,0,0-.28-.075.537.537,0,0,0-.321.1l-1.441,1.04a.121.121,0,0,1-.062.021.109.109,0,0,1-.078-.033L3.087,15.693a.115.115,0,0,1-.012-.142L4.087,14.11a.579.579,0,0,0,.025-.618,6.68,6.68,0,0,1-.724-1.746.567.567,0,0,0-.445-.414l-1.741-.3a.108.108,0,0,1-.091-.109V9.163A.108.108,0,0,1,1.2,9.055l1.716-.292a.56.56,0,0,0,.449-.418,6.739,6.739,0,0,1,.7-1.755.565.565,0,0,0-.029-.61L3.017,4.517a.115.115,0,0,1,.012-.142L4.256,3.13A.1.1,0,0,1,4.334,3.1a.1.1,0,0,1,.062.021l1.42,1.028a.556.556,0,0,0,.609.025,6.475,6.475,0,0,1,1.72-.735.569.569,0,0,0,.407-.451l.3-1.767a.107.107,0,0,1,.107-.092h1.733a.107.107,0,0,1,.107.092l.288,1.742a.562.562,0,0,0,.412.455,6.625,6.625,0,0,1,1.766.735.55.55,0,0,0,.605-.025l1.42-1.036a.121.121,0,0,1,.062-.021.109.109,0,0,1,.078.033l1.227,1.245a.115.115,0,0,1,.012.142l-1.017,1.45a.572.572,0,0,0-.025.614A6.744,6.744,0,0,1,16.34,8.3a.55.55,0,0,0,.445.414l1.729.3a.108.108,0,0,1,.091.109V10.88Z" transform="translate(0 -0.001)" fill="#fff"/>
      <path id="Path_54" data-name="Path 54" d="M140.352,136a4.252,4.252,0,1,0,4.252,4.252A4.254,4.254,0,0,0,140.352,136Zm0,7.392a3.14,3.14,0,1,1,3.14-3.14A3.143,3.143,0,0,1,140.352,143.393Z" transform="translate(-130.498 -130.255)" fill="#fff"/>
    </g>
  </g>
</svg>
