<svg xmlns="http://www.w3.org/2000/svg" width="17.25" height="21.757" viewBox="0 0 17.25 21.757">
  <g id="shopping-bag" transform="translate(-53.02)">
    <g id="Group_43" data-name="Group 43" transform="translate(53.02)">
      <g id="Group_42" data-name="Group 42">
        <path id="Path_57" data-name="Path 57" d="M70.26,17.941,69.289,5.7A1.53,1.53,0,0,0,67.77,4.292H65.851V4.206a4.206,4.206,0,1,0-8.411,0v.086H55.521A1.53,1.53,0,0,0,54,5.7L53.03,17.943a3.543,3.543,0,0,0,3.532,3.813H66.728a3.543,3.543,0,0,0,3.532-3.815ZM58.714,4.206a2.931,2.931,0,1,1,5.862,0v.086H58.714Zm9.678,15.55a2.245,2.245,0,0,1-1.664.727H56.563a2.268,2.268,0,0,1-2.262-2.44L55.273,5.8a.25.25,0,0,1,.248-.23H57.44V7.136a.637.637,0,0,0,1.274,0V5.566h5.862V7.136a.637.637,0,0,0,1.274,0V5.566H67.77a.25.25,0,0,1,.248.231l.972,12.243A2.245,2.245,0,0,1,68.392,19.755Z" transform="translate(-53.02)" fill="#fff"/>
      </g>
    </g>
    <g id="Group_45" data-name="Group 45" transform="translate(58.588 10.619)">
      <g id="Group_44" data-name="Group 44">
        <path id="Path_58" data-name="Path 58" d="M189.98,250.08a.637.637,0,0,0-.9,0l-2.845,2.845-1.094-1.094a.637.637,0,0,0-.9.9l1.545,1.545a.637.637,0,0,0,.9,0l3.3-3.3A.637.637,0,0,0,189.98,250.08Z" transform="translate(-184.052 -249.893)" fill="#fff"/>
      </g>
    </g>
  </g>
</svg>
