<svg xmlns="http://www.w3.org/2000/svg" width="20" height="20" viewBox="0 0 20 20">
  <path id="term" d="M18.438,12.969V4.688a1.564,1.564,0,0,0-1.562-1.562H15.859v.781a.781.781,0,0,1-1.562,0V3.125H10.742v.781a.781.781,0,0,1-1.562,0V3.125H5.664v.781a.781.781,0,0,1-1.562,0V3.125H3.125A1.564,1.564,0,0,0,1.563,4.688V16.875a1.564,1.564,0,0,0,1.563,1.563h13.75a1.564,1.564,0,0,0,1.563-1.562.781.781,0,0,1,1.563,0A3.128,3.128,0,0,1,16.875,20H3.125A3.128,3.128,0,0,1,0,16.875V4.688A3.128,3.128,0,0,1,3.125,1.563H4.1V.781a.781.781,0,0,1,1.563,0v.781H9.18V.781a.781.781,0,0,1,1.563,0v.781H14.3V.781a.781.781,0,0,1,1.563,0v.781h1.016A3.128,3.128,0,0,1,20,4.688v8.281a.781.781,0,0,1-1.562,0Zm-7.7-5.117a.781.781,0,0,0-1.562,0v5.039a.781.781,0,0,0,1.563,0Zm-.781,6.992a.781.781,0,1,0,.781.781A.781.781,0,0,0,9.961,14.844Zm0,0" fill="#fff"/>
</svg>
