<svg xmlns="http://www.w3.org/2000/svg" width="19.739" height="18.331" viewBox="0 0 19.739 18.331">
  <g id="upload" transform="translate(0.25 -17)">
    <g id="Group_1124" data-name="Group 1124" transform="translate(0 17.25)">
      <path id="Path_1396" data-name="Path 1396" d="M18.688,228.232a.549.549,0,0,0-.551.551V233.8a2.474,2.474,0,0,1-2.47,2.47H3.573A2.474,2.474,0,0,1,1.1,233.8v-5.1a.551.551,0,1,0-1.1,0v5.1a3.577,3.577,0,0,0,3.573,3.573H15.667a3.577,3.577,0,0,0,3.573-3.573v-5.014A.552.552,0,0,0,18.688,228.232Z" transform="translate(0 -219.539)" fill="#fff" stroke="#fff" stroke-width="0.5"/>
      <path id="Path_1397" data-name="Path 1397" d="M137.263,21.7l2.564-2.564V30.316a.551.551,0,1,0,1.1,0V19.132l2.564,2.564a.555.555,0,0,0,.388.163.531.531,0,0,0,.388-.163.55.55,0,0,0,0-.78l-3.5-3.5a.558.558,0,0,0-.388-.163.534.534,0,0,0-.388.163l-3.5,3.5a.55.55,0,1,0,.776.78Z" transform="translate(-130.759 -17.25)" fill="#fff" stroke="#fff" stroke-width="0.5"/>
    </g>
  </g>
</svg>
