<svg xmlns="http://www.w3.org/2000/svg" width="79.649" height="72.812" viewBox="0 0 79.649 72.812">
  <g id="warning" transform="translate(0 -20.882)">
    <g id="Group_54" data-name="Group 54" transform="translate(0 20.882)">
      <path id="Path_73" data-name="Path 73" d="M222.318,333.382a4.093,4.093,0,0,0,0,8.187,4.095,4.095,0,0,0,0-8.187Z" transform="translate(-182.494 -282.215)" fill="#fad105"/>
      <path id="Path_74" data-name="Path 74" d="M77.711,86.555a13.978,13.978,0,0,0,.033-14.147L52.1,28a14.127,14.127,0,0,0-24.527-.016L1.9,72.441a14.181,14.181,0,0,0,12.28,21.253H65.4A14.1,14.1,0,0,0,77.711,86.555Zm-5.567-3.209a7.737,7.737,0,0,1-6.762,3.913H14.167a7.632,7.632,0,0,1-6.68-3.831,7.748,7.748,0,0,1-.016-7.81L33.143,31.181a7.711,7.711,0,0,1,13.393.016L72.194,75.634A7.645,7.645,0,0,1,72.144,83.346Z" transform="translate(0 -20.882)" fill="#fad105"/>
      <path id="Path_75" data-name="Path 75" d="M220.885,157.292a4.451,4.451,0,0,0-3.16,4.47c.1,1.293.18,2.6.278,3.9.278,4.928.557,9.758.835,14.687a3,3,0,0,0,3.062,2.882,3.061,3.061,0,0,0,3.062-2.98c0-1.015,0-1.948.1-2.98.18-3.16.377-6.32.557-9.48.1-2.047.278-4.093.377-6.14a5.056,5.056,0,0,0-.377-2.047A4.1,4.1,0,0,0,220.885,157.292Z" transform="translate(-182.076 -134.86)" fill="#fad105"/>
    </g>
  </g>
</svg>
