<svg xmlns="http://www.w3.org/2000/svg" xmlns:xlink="http://www.w3.org/1999/xlink" width="176.763" height="254.651" viewBox="0 0 176.763 254.651">
  <defs>
    <clipPath id="clip-path">
      <path id="Path_987" data-name="Path 987" d="M388.362,175.2l-35.218-20.936,18.37-10.541,15.764,9.01,10.176-5.881,19.368,11.96Z" fill="none"/>
    </clipPath>
    <clipPath id="clip-path-2">
      <path id="Path_1026" data-name="Path 1026" d="M388.181,276.787l-19.187-11.2,41.286-23.6,19.187,11.2Z" fill="none"/>
    </clipPath>
    <clipPath id="clip-path-3">
      <path id="Path_1073" data-name="Path 1073" d="M435.215,309.913,396,287.381,423.145,271.8l39.216,22.532Z" fill="none"/>
    </clipPath>
    <clipPath id="clip-path-4">
      <path id="Path_1116" data-name="Path 1116" d="M399.263,120.118,365.583,100.7l18.163-10.487,33.68,19.419Z" fill="none"/>
    </clipPath>
    <clipPath id="clip-path-5">
      <path id="Path_1165" data-name="Path 1165" d="M408.418,191.9l-3.931,2.2c-3.472,1.941-2.856,6.026-.2,8.987a24.631,24.631,0,0,0,5.753,4.316,36.857,36.857,0,0,0,12.621,4.536,3.193,3.193,0,0,0,1.993-.413l14.408-8.4c1.061-.618.106-2.7-.992-3.247l-15.409-9Z" fill="none"/>
    </clipPath>
    <clipPath id="clip-path-6">
      <path id="Path_1207" data-name="Path 1207" d="M423.845,151.57l-19.187-11.2,25.081-14.392,19.187,11.2Z" fill="none"/>
    </clipPath>
    <clipPath id="clip-path-7">
      <path id="Path_1250" data-name="Path 1250" d="M401.477,210.33c-.964-1.883-3.121-3.728-6.529-5.532a31.191,31.191,0,0,0-15.237-3.772,34.066,34.066,0,0,0-15.6,4.185q-5.9,3.122-7.43,6.291v4.453c.933,1.932,3.083,3.8,6.5,5.613A31.058,31.058,0,0,0,378.4,225.34a34.3,34.3,0,0,0,15.637-4.24q5.841-3.093,7.436-6.192Z" fill="none"/>
    </clipPath>
    <clipPath id="clip-path-8">
      <path id="SVGID" d="M463.918,243.716c3.121,1.8,3.121,4.724,0,6.527a12.5,12.5,0,0,1-11.3,0c-3.121-1.8-3.121-4.725,0-6.527A12.5,12.5,0,0,1,463.918,243.716Z" fill="none"/>
    </clipPath>
    <clipPath id="clip-path-9">
      <path id="SVGID-2" data-name="SVGID" d="M330.889,132l-7.487-4.322c-.9-.523-.791-1.436.254-2.039l6.979-4.03a3.923,3.923,0,0,1,3.532-.146l7.487,4.322c.9.523.792,1.436-.254,2.039l-6.979,4.03A3.926,3.926,0,0,1,330.889,132Z" fill="none"/>
    </clipPath>
  </defs>
  <g id="Group_1116" data-name="Group 1116" transform="translate(-316.189 -55.262)">
    <g id="Group_1033" data-name="Group 1033">
      <g id="Group_1032" data-name="Group 1032" clip-path="url(#clip-path)">
        <path id="Path_954" data-name="Path 954" d="M430.532,153.085l-70.224-105.9.243-.488,70.224,105.9Z" fill="#2d81ca"/>
        <path id="Path_955" data-name="Path 955" d="M429.115,155.933l-70.224-105.9.243-.488,70.224,105.9Z" fill="#2d81ca"/>
        <path id="Path_956" data-name="Path 956" d="M427.7,158.781l-70.224-105.9.243-.488,70.224,105.9Z" fill="#2d81ca"/>
        <path id="Path_957" data-name="Path 957" d="M426.28,161.63l-70.224-105.9.243-.488,70.224,105.9Z" fill="#2d81ca"/>
        <path id="Path_958" data-name="Path 958" d="M424.863,164.479l-70.224-105.9.243-.488,70.224,105.9Z" fill="#2d81ca"/>
        <path id="Path_959" data-name="Path 959" d="M423.446,167.327l-70.224-105.9.243-.488,70.224,105.9Z" fill="#2d81ca"/>
        <path id="Path_960" data-name="Path 960" d="M422.029,170.176,351.8,64.276l.243-.488,70.224,105.9Z" fill="#2d81ca"/>
        <path id="Path_961" data-name="Path 961" d="M420.612,173.024l-70.224-105.9.243-.488,70.224,105.9Z" fill="#2d81ca"/>
        <path id="Path_962" data-name="Path 962" d="M419.195,175.872l-70.224-105.9.243-.488,70.224,105.9Z" fill="#2d81ca"/>
        <path id="Path_963" data-name="Path 963" d="M417.818,178.64,347.594,72.74l.243-.488,70.224,105.9Z" fill="#2d81ca"/>
        <path id="Path_964" data-name="Path 964" d="M416.4,181.488l-70.224-105.9.243-.488L416.644,181Z" fill="#2d81ca"/>
        <path id="Path_965" data-name="Path 965" d="M414.984,184.336,344.76,78.437l.243-.488,70.224,105.9Z" fill="#2d81ca"/>
        <path id="Path_966" data-name="Path 966" d="M413.567,187.185l-70.224-105.9.243-.488L413.81,186.7Z" fill="#2d81ca"/>
        <path id="Path_967" data-name="Path 967" d="M412.15,190.033l-70.224-105.9.243-.488,70.224,105.9Z" fill="#2d81ca"/>
        <path id="Path_968" data-name="Path 968" d="M410.732,192.882l-70.224-105.9.243-.488,70.224,105.9Z" fill="#2d81ca"/>
        <path id="Path_969" data-name="Path 969" d="M409.315,195.73l-70.224-105.9.243-.488,70.224,105.9Z" fill="#2d81ca"/>
        <path id="Path_970" data-name="Path 970" d="M407.9,198.579l-70.224-105.9.243-.488,70.224,105.9Z" fill="#2d81ca"/>
        <path id="Path_971" data-name="Path 971" d="M406.486,201.417l-70.224-105.9.243-.488,70.224,105.9Z" fill="#2d81ca"/>
        <path id="Path_972" data-name="Path 972" d="M405.069,204.266l-70.224-105.9.243-.488,70.224,105.9Z" fill="#2d81ca"/>
        <path id="Path_973" data-name="Path 973" d="M403.652,207.114l-70.224-105.9.243-.488,70.224,105.9Z" fill="#2d81ca"/>
        <path id="Path_974" data-name="Path 974" d="M402.235,209.963l-70.224-105.9.243-.488,70.224,105.9Z" fill="#2d81ca"/>
        <path id="Path_975" data-name="Path 975" d="M400.818,212.811l-70.224-105.9.243-.488,70.224,105.9Z" fill="#2d81ca"/>
        <path id="Path_976" data-name="Path 976" d="M399.4,215.659l-70.224-105.9.243-.488,70.224,105.9Z" fill="#2d81ca"/>
        <path id="Path_977" data-name="Path 977" d="M397.983,218.508l-70.224-105.9.243-.488,70.224,105.9Z" fill="#2d81ca"/>
        <path id="Path_978" data-name="Path 978" d="M396.566,221.356l-70.224-105.9.243-.488,70.224,105.9Z" fill="#2d81ca"/>
        <path id="Path_979" data-name="Path 979" d="M395.189,224.124l-70.224-105.9.243-.488,70.224,105.9Z" fill="#2d81ca"/>
        <path id="Path_980" data-name="Path 980" d="M393.772,226.972l-70.224-105.9.243-.488,70.224,105.9Z" fill="#2d81ca"/>
        <path id="Path_981" data-name="Path 981" d="M392.355,229.82l-70.224-105.9.243-.488,70.224,105.9Z" fill="#2d81ca"/>
        <path id="Path_982" data-name="Path 982" d="M390.938,232.669l-70.224-105.9.243-.488,70.224,105.9Z" fill="#2d81ca"/>
        <path id="Path_983" data-name="Path 983" d="M389.521,235.517,319.3,129.618l.243-.488,70.224,105.9Z" fill="#2d81ca"/>
        <path id="Path_984" data-name="Path 984" d="M388.1,238.366l-70.224-105.9.243-.488,70.224,105.9Z" fill="#2d81ca"/>
        <path id="Path_985" data-name="Path 985" d="M386.687,241.214l-70.224-105.9.243-.488,70.224,105.9Z" fill="#2d81ca"/>
        <path id="Path_986" data-name="Path 986" d="M385.27,244.063l-70.224-105.9.243-.488,70.224,105.9Z" fill="#2d81ca"/>
      </g>
    </g>
    <path id="Path_988" data-name="Path 988" d="M388.8,156.848,362.385,141.6l7.137-4.12,20.65,11.923,10.172-5.873,5.764,3.328Z" fill="#fad105"/>
    <path id="Path_989" data-name="Path 989" d="M362.385,141.6v8.641l26.414,15.25v-8.641Z" fill="#fad105"/>
    <path id="Path_990" data-name="Path 990" d="M388.8,159.639l-26.414-15.25,7.137-4.12,20.65,11.922,10.172-5.872,5.764,3.327Z" fill="#fec"/>
    <path id="Path_991" data-name="Path 991" d="M406.108,146.855V155.5L388.8,165.489v-8.641Z" fill="#2d81ca"/>
    <path id="Path_992" data-name="Path 992" d="M406.545,146.6l-6.2-3.58L390.172,148.9l-20.65-11.923-7.574,4.373v9.146l26.851,15.5,17.527-10.12.219-.125Zm-37.023-8.622,20.65,11.923,10.172-5.872,4.889,2.823-7.586,4.38-8.847,5.108L363.26,141.6Zm-6.7,12.006v-7.632l25.54,14.745v7.632Zm42.848,5.257-16.434,9.488V157.1l16.434-9.488Z"/>
    <g id="Group_1035" data-name="Group 1035">
      <g id="Group_1034" data-name="Group 1034" clip-path="url(#clip-path-2)">
        <path id="Path_993" data-name="Path 993" d="M449.176,265.447l-70.224-105.9.243-.488,70.224,105.9Z" fill="#2d81ca"/>
        <path id="Path_994" data-name="Path 994" d="M447.759,268.3,377.534,162.4l.243-.488L448,267.807Z" fill="#2d81ca"/>
        <path id="Path_995" data-name="Path 995" d="M446.342,271.144l-70.224-105.9.243-.488,70.224,105.9Z" fill="#2d81ca"/>
        <path id="Path_996" data-name="Path 996" d="M444.924,273.992,374.7,168.093l.243-.488,70.224,105.9Z" fill="#2d81ca"/>
        <path id="Path_997" data-name="Path 997" d="M443.507,276.841l-70.224-105.9.243-.488,70.224,105.9Z" fill="#2d81ca"/>
        <path id="Path_998" data-name="Path 998" d="M442.09,279.689l-70.224-105.9.243-.488,70.224,105.9Z" fill="#2d81ca"/>
        <path id="Path_999" data-name="Path 999" d="M440.673,282.538l-70.224-105.9.243-.488,70.224,105.9Z" fill="#2d81ca"/>
        <path id="Path_1000" data-name="Path 1000" d="M439.256,285.386l-70.224-105.9.243-.488L439.5,284.9Z" fill="#2d81ca"/>
        <path id="Path_1001" data-name="Path 1001" d="M437.839,288.235l-70.224-105.9.243-.488,70.224,105.9Z" fill="#2d81ca"/>
        <path id="Path_1002" data-name="Path 1002" d="M436.462,291,366.238,185.1l.243-.488,70.224,105.9Z" fill="#2d81ca"/>
        <path id="Path_1003" data-name="Path 1003" d="M435.045,293.85l-70.224-105.9.243-.488,70.224,105.9Z" fill="#2d81ca"/>
        <path id="Path_1004" data-name="Path 1004" d="M433.628,296.7,363.4,190.8l.243-.488,70.224,105.9Z" fill="#2d81ca"/>
        <path id="Path_1005" data-name="Path 1005" d="M432.211,299.547l-70.224-105.9.243-.488,70.224,105.9Z" fill="#2d81ca"/>
        <path id="Path_1006" data-name="Path 1006" d="M430.794,302.4,360.569,196.5l.243-.488,70.224,105.9Z" fill="#2d81ca"/>
        <path id="Path_1007" data-name="Path 1007" d="M429.376,305.244l-70.224-105.9.243-.488,70.224,105.9Z" fill="#2d81ca"/>
        <path id="Path_1008" data-name="Path 1008" d="M427.959,308.093l-70.224-105.9.243-.488L428.2,307.6Z" fill="#2d81ca"/>
        <path id="Path_1009" data-name="Path 1009" d="M426.542,310.941l-70.224-105.9.243-.488,70.224,105.9Z" fill="#2d81ca"/>
        <path id="Path_1010" data-name="Path 1010" d="M425.13,313.78l-70.224-105.9.243-.488,70.224,105.9Z" fill="#2d81ca"/>
        <path id="Path_1011" data-name="Path 1011" d="M423.713,316.628l-70.224-105.9.243-.488,70.224,105.9Z" fill="#2d81ca"/>
        <path id="Path_1012" data-name="Path 1012" d="M422.3,319.476l-70.224-105.9.243-.488,70.224,105.9Z" fill="#2d81ca"/>
        <path id="Path_1013" data-name="Path 1013" d="M420.879,322.325l-70.224-105.9.243-.488,70.224,105.9Z" fill="#2d81ca"/>
        <path id="Path_1014" data-name="Path 1014" d="M419.462,325.173l-70.224-105.9.243-.488,70.224,105.9Z" fill="#2d81ca"/>
        <path id="Path_1015" data-name="Path 1015" d="M418.044,328.022l-70.224-105.9.243-.488,70.224,105.9Z" fill="#2d81ca"/>
        <path id="Path_1016" data-name="Path 1016" d="M416.627,330.87,346.4,224.971l.243-.488,70.224,105.9Z" fill="#2d81ca"/>
        <path id="Path_1017" data-name="Path 1017" d="M415.21,333.719l-70.224-105.9.243-.488,70.224,105.9Z" fill="#2d81ca"/>
        <path id="Path_1018" data-name="Path 1018" d="M413.833,336.486l-70.224-105.9.243-.488L414.076,336Z" fill="#2d81ca"/>
        <path id="Path_1019" data-name="Path 1019" d="M412.416,339.334l-70.224-105.9.243-.488,70.224,105.9Z" fill="#2d81ca"/>
        <path id="Path_1020" data-name="Path 1020" d="M411,342.183l-70.224-105.9.243-.488,70.224,105.9Z" fill="#2d81ca"/>
        <path id="Path_1021" data-name="Path 1021" d="M409.582,345.031l-70.224-105.9.243-.488,70.224,105.9Z" fill="#2d81ca"/>
        <path id="Path_1022" data-name="Path 1022" d="M408.165,347.879l-70.224-105.9.243-.488,70.224,105.9Z" fill="#2d81ca"/>
        <path id="Path_1023" data-name="Path 1023" d="M406.748,350.728l-70.224-105.9.243-.488,70.224,105.9Z" fill="#2d81ca"/>
        <path id="Path_1024" data-name="Path 1024" d="M405.331,353.577l-70.224-105.9.243-.488,70.224,105.9Z" fill="#2d81ca"/>
        <path id="Path_1025" data-name="Path 1025" d="M403.914,356.425l-70.224-105.9.243-.488,70.224,105.9Z" fill="#2d81ca"/>
      </g>
    </g>
    <path id="Path_1027" data-name="Path 1027" d="M400.109,224.582l8.548,4.92,9.522-5.5-8.548-4.921Z" fill="#fad105"/>
    <path id="Path_1028" data-name="Path 1028" d="M379.565,262.869l8.52,4.919V241.373l-8.52-4.919Z" fill="#fad105"/>
    <path id="Path_1029" data-name="Path 1029" d="M379.565,236.454l9.5-5.489,8.548,4.92-9.5,5.487Z" fill="#fad105"/>
    <path id="Path_1030" data-name="Path 1030" d="M411.637,254.206l-8.548-4.92,7.856-13.857.8-.274.163-.094,2.24,9.21Z" fill="#fad105"/>
    <path id="Path_1031" data-name="Path 1031" d="M411.637,254.71h0l-9.142-5.262,8.151-14.378,1.044-.388.505-.29,2.4,9.88-2.582,10.22Zm-7.954-5.586,7.671,4.415,2.343-9.27-2.093-8.608-.359.126Z"/>
    <path id="Path_1032" data-name="Path 1032" d="M400.126,224.582l-4.463,18.262L403.5,253.19l2.541-3.14,2.637-20.547Z" fill="#fad105"/>
    <path id="Path_1033" data-name="Path 1033" d="M403.484,253.9l-8.3-10.956,4.557-18.645.38-.22,9.018,5.192-2.69,20.959Zm-7.347-11.152,7.369,9.735,2.113-2.609,2.584-20.137-7.791-4.484Z"/>
    <path id="Path_1034" data-name="Path 1034" d="M400.073,227.76l8.548,4.92,9.522-5.5-8.548-4.92Z" fill="#fec"/>
    <path id="Path_1035" data-name="Path 1035" d="M379.529,239.633l9.5-5.489,8.548,4.92-9.5,5.487Z" fill="#fec"/>
    <path id="Path_1036" data-name="Path 1036" d="M399.622,261.143l-5.185-2.982L392.426,246.6l1.632-1.273.163-.094Z" fill="#fad105"/>
    <path id="Path_1037" data-name="Path 1037" d="M400.151,261.342l-.528.3-5.581-3.21L391.95,246.42,394,244.859l.462-.267,5.655,16.653Zm-5.319-3.458,4,2.3-4.842-14.255-1.093.856Z"/>
    <path id="Path_1038" data-name="Path 1038" d="M399.622,261.143l-5.4-15.906-.162.094q.379,4.641.379,7.333v11.472l-6.324,3.651V241.373l9.5-5.487,5.511,15.572.144-.083,5.4-21.873,9.521-5.5V250.42l-6.558,3.786V242.625q0-.9.027-2.021t.244-5.543l-.163.094-5.33,22.066Z" fill="#2d81ca"/>
    <path id="Path_1039" data-name="Path 1039" d="M418.632,223.753l-8.985-5.173-9.9,5.717-.122.5,8.546,4.92-5.044,20.426-5.151-14.556-8.907-5.126-9.94,5.741v26.919L388.1,268.3l6.775-3.911V252.664c0-1.242-.061-2.81-.182-4.678l4.57,13.453.361.208.786-.454,6.387-3.687L411.29,238.9c-.033.787-.055,1.354-.063,1.695q-.027,1.122-.027,2.031v11.833l.437.252.378-.218,6.617-3.82ZM401,224.581l8.646-4.992,7.673,4.417-7.6,4.386-1.05.606Zm-11.933,6.889,7.674,4.417-8.629,4.982-7.673-4.415Zm-1.42,35.56L380,262.616v-25.4l7.646,4.414Zm30.11-16.863-5.684,3.282V242.625q0-.9.027-2.011c.018-.75.1-2.611.243-5.531l.04-.8-1.02.587-5.329,22.066-6.17,3.562-5.4-15.906-.863.5.023.276c.25,3.067.377,5.522.377,7.3v11.22l-5.45,3.146v-25.4l8.83-5.1,5.511,15.574.76-.441,5.4-21.872,1.106-.639,7.6-4.386Z"/>
    <g id="Group_1037" data-name="Group 1037">
      <g id="Group_1036" data-name="Group 1036" clip-path="url(#clip-path-3)">
        <path id="Path_1040" data-name="Path 1040" d="M475.089,285.924l-70.224-105.9.243-.488,70.224,105.9Z" fill="#2d81ca"/>
        <path id="Path_1041" data-name="Path 1041" d="M473.672,288.772l-70.224-105.9.243-.488,70.224,105.9Z" fill="#2d81ca"/>
        <path id="Path_1042" data-name="Path 1042" d="M472.255,291.621l-70.224-105.9.243-.488,70.224,105.9Z" fill="#2d81ca"/>
        <path id="Path_1043" data-name="Path 1043" d="M470.837,294.469l-70.224-105.9.243-.488,70.224,105.9Z" fill="#2d81ca"/>
        <path id="Path_1044" data-name="Path 1044" d="M469.42,297.318,399.2,191.419l.243-.488,70.224,105.9Z" fill="#2d81ca"/>
        <path id="Path_1045" data-name="Path 1045" d="M468,300.166l-70.224-105.9.243-.488,70.224,105.9Z" fill="#2d81ca"/>
        <path id="Path_1046" data-name="Path 1046" d="M466.586,303.015l-70.224-105.9.243-.488,70.224,105.9Z" fill="#2d81ca"/>
        <path id="Path_1047" data-name="Path 1047" d="M465.169,305.863l-70.224-105.9.243-.488,70.224,105.9Z" fill="#2d81ca"/>
        <path id="Path_1048" data-name="Path 1048" d="M463.752,308.711l-70.224-105.9.243-.488,70.224,105.9Z" fill="#2d81ca"/>
        <path id="Path_1049" data-name="Path 1049" d="M462.375,311.479l-70.224-105.9.243-.488,70.224,105.9Z" fill="#2d81ca"/>
        <path id="Path_1050" data-name="Path 1050" d="M460.958,314.327l-70.224-105.9.243-.488,70.224,105.9Z" fill="#2d81ca"/>
        <path id="Path_1051" data-name="Path 1051" d="M459.541,317.176l-70.224-105.9.243-.488,70.224,105.9Z" fill="#2d81ca"/>
        <path id="Path_1052" data-name="Path 1052" d="M458.124,320.024,387.9,214.125l.243-.488,70.224,105.9Z" fill="#2d81ca"/>
        <path id="Path_1053" data-name="Path 1053" d="M456.707,322.872l-70.224-105.9.243-.488,70.224,105.9Z" fill="#2d81ca"/>
        <path id="Path_1054" data-name="Path 1054" d="M455.289,325.721l-70.224-105.9.243-.488,70.224,105.9Z" fill="#2d81ca"/>
        <path id="Path_1055" data-name="Path 1055" d="M453.872,328.569l-70.224-105.9.243-.488,70.224,105.9Z" fill="#2d81ca"/>
        <path id="Path_1056" data-name="Path 1056" d="M452.455,331.418l-70.224-105.9.243-.488L452.7,330.93Z" fill="#2d81ca"/>
        <path id="Path_1057" data-name="Path 1057" d="M451.043,334.256l-70.224-105.9.243-.488,70.224,105.9Z" fill="#2d81ca"/>
        <path id="Path_1058" data-name="Path 1058" d="M449.626,337.1,379.4,231.205l.243-.488,70.224,105.9Z" fill="#2d81ca"/>
        <path id="Path_1059" data-name="Path 1059" d="M448.209,339.953l-70.224-105.9.243-.488,70.224,105.9Z" fill="#2d81ca"/>
        <path id="Path_1060" data-name="Path 1060" d="M446.792,342.8,376.567,236.9l.243-.488,70.224,105.9Z" fill="#2d81ca"/>
        <path id="Path_1061" data-name="Path 1061" d="M445.375,345.65l-70.224-105.9.243-.488,70.224,105.9Z" fill="#2d81ca"/>
        <path id="Path_1062" data-name="Path 1062" d="M443.957,348.5,373.733,242.6l.243-.488L444.2,348.01Z" fill="#2d81ca"/>
        <path id="Path_1063" data-name="Path 1063" d="M442.54,351.347l-70.224-105.9.243-.488,70.224,105.9Z" fill="#2d81ca"/>
        <path id="Path_1064" data-name="Path 1064" d="M441.123,354.2,370.9,248.3l.243-.488,70.224,105.9Z" fill="#2d81ca"/>
        <path id="Path_1065" data-name="Path 1065" d="M439.746,356.963l-70.224-105.9.243-.488,70.224,105.9Z" fill="#2d81ca"/>
        <path id="Path_1066" data-name="Path 1066" d="M438.329,359.811l-70.224-105.9.243-.488,70.224,105.9Z" fill="#2d81ca"/>
        <path id="Path_1067" data-name="Path 1067" d="M436.912,362.66l-70.224-105.9.243-.488,70.224,105.9Z" fill="#2d81ca"/>
        <path id="Path_1068" data-name="Path 1068" d="M435.495,365.508l-70.224-105.9.243-.488,70.224,105.9Z" fill="#2d81ca"/>
        <path id="Path_1069" data-name="Path 1069" d="M434.078,368.356l-70.224-105.9.243-.488,70.224,105.9Z" fill="#2d81ca"/>
        <path id="Path_1070" data-name="Path 1070" d="M432.661,371.2l-70.224-105.9.243-.488,70.224,105.9Z" fill="#2d81ca"/>
        <path id="Path_1071" data-name="Path 1071" d="M431.244,374.053l-70.224-105.9.243-.488,70.224,105.9Z" fill="#2d81ca"/>
        <path id="Path_1072" data-name="Path 1072" d="M429.827,376.9,359.6,271l.243-.488,70.224,105.9Z" fill="#2d81ca"/>
      </g>
    </g>
    <path id="Path_1074" data-name="Path 1074" d="M406.853,275.634V284.3l26.039,15.033v-8.668Z" fill="#fad105"/>
    <path id="Path_1075" data-name="Path 1075" d="M424.077,281.155l-7.534-5.463,4.436-4.585,7.05-1.6.367.211v5.118Zm-6.2-5.579,5.99,4.343,3.66-5.355v-4.048l-6.1,1.385Z"/>
    <path id="Path_1076" data-name="Path 1076" d="M435.519,285.754l-.325-.062c-2.261-.424-5.7-1.064-5.895-1.092-.289.026-.273,0-2.514-3.57l-.161-.257,3.618-4.73,6.937-.536.336.193v6.031Zm-5.935-1.991c.424.073,1.667.3,5.446,1.009l1.611-3.246v-5.1l-5.941.46-3.013,3.938C428.472,282.069,429.313,283.381,429.584,283.763Z"/>
    <path id="Path_1077" data-name="Path 1077" d="M448.351,281.742l-15.459,8.926-26.039-15.034,15.46-8.925,5.645,3.259-8.424,4.864,4.1,2.366,7.8-4.505,5.646,3.26-7.8,4.5,4.916,2.838,8.424-4.864Z" fill="#fad105"/>
    <path id="Path_1078" data-name="Path 1078" d="M448.271,284.209l-15.46,8.925L406.773,278.1l15.459-8.925,5.646,3.259-8.425,4.864,4.1,2.365,7.8-4.5L437,278.42l-7.8,4.5,4.915,2.838,8.425-4.864Z" fill="#fec"/>
    <path id="Path_1079" data-name="Path 1079" d="M437.078,275.953v5.676l-1.885,1.212s-1.008.388-1.086.388-4.77-2.928-4.77-2.928l1.551-.892Z" fill="#2d81ca"/>
    <path id="Path_1080" data-name="Path 1080" d="M427.958,269.968V274.7l-4.328,2.5-4.338-2.4,2.172-1.26Z" fill="#2d81ca"/>
    <path id="Path_1081" data-name="Path 1081" d="M448.788,281.49l-6.172-3.564-8.424,4.865-4.041-2.334,7.138-4.121.226-.131v-.5l-6.083-3.511-7.8,4.5-3.223-1.861,7.988-4.611v-.505l-6.083-3.511-15.9,9.177v9.173l26.476,15.285,15.9-9.177Zm-26.475-14.276,4.772,2.755-8.425,4.863,4.971,2.87,7.8-4.5,4.771,2.755-7.8,4.5,5.789,3.343,8.424-4.865,4.861,2.807-14.585,8.42-25.164-14.528ZM407.291,284.05v-7.659l25.164,14.529v7.658Zm40.623,6.108-14.585,8.42V290.92l14.585-8.421Z"/>
    <path id="Path_1082" data-name="Path 1082" d="M432.892,290.8v8.668l15.46-8.926v-8.668Z" fill="#2d81ca"/>
    <g id="Group_1039" data-name="Group 1039">
      <g id="Group_1038" data-name="Group 1038" clip-path="url(#clip-path-4)">
        <path id="Path_1083" data-name="Path 1083" d="M444.921,99.381,374.7-6.518l.243-.488,70.224,105.9Z" fill="#2d81ca"/>
        <path id="Path_1084" data-name="Path 1084" d="M443.5,102.229,373.28-3.67l.243-.488,70.224,105.9Z" fill="#2d81ca"/>
        <path id="Path_1085" data-name="Path 1085" d="M442.087,105.078,371.863-.821l.243-.488,70.224,105.9Z" fill="#2d81ca"/>
        <path id="Path_1086" data-name="Path 1086" d="M440.67,107.926,370.446,2.027l.243-.488,70.224,105.9Z" fill="#2d81ca"/>
        <path id="Path_1087" data-name="Path 1087" d="M439.253,110.775,369.029,4.876l.243-.488,70.224,105.9Z" fill="#2d81ca"/>
        <path id="Path_1088" data-name="Path 1088" d="M437.836,113.623,367.612,7.724l.243-.488,70.224,105.9Z" fill="#2d81ca"/>
        <path id="Path_1089" data-name="Path 1089" d="M436.419,116.472l-70.224-105.9.243-.488,70.224,105.9Z" fill="#2d81ca"/>
        <path id="Path_1090" data-name="Path 1090" d="M435,119.32l-70.224-105.9.243-.488,70.224,105.9Z" fill="#2d81ca"/>
        <path id="Path_1091" data-name="Path 1091" d="M433.585,122.169,363.36,16.269l.243-.488,70.224,105.9Z" fill="#2d81ca"/>
        <path id="Path_1092" data-name="Path 1092" d="M432.208,124.936l-70.224-105.9.243-.488,70.224,105.9Z" fill="#2d81ca"/>
        <path id="Path_1093" data-name="Path 1093" d="M430.791,127.784l-70.224-105.9.243-.488,70.224,105.9Z" fill="#2d81ca"/>
        <path id="Path_1094" data-name="Path 1094" d="M429.374,130.633l-70.224-105.9.243-.488,70.224,105.9Z" fill="#2d81ca"/>
        <path id="Path_1095" data-name="Path 1095" d="M427.956,133.481l-70.224-105.9.243-.488,70.224,105.9Z" fill="#2d81ca"/>
        <path id="Path_1096" data-name="Path 1096" d="M426.539,136.33,356.315,30.43l.243-.488,70.224,105.9Z" fill="#2d81ca"/>
        <path id="Path_1097" data-name="Path 1097" d="M425.122,139.178,354.9,33.279l.243-.488,70.224,105.9Z" fill="#2d81ca"/>
        <path id="Path_1098" data-name="Path 1098" d="M423.7,142.027l-70.224-105.9.243-.488,70.224,105.9Z" fill="#2d81ca"/>
        <path id="Path_1099" data-name="Path 1099" d="M422.288,144.875l-70.224-105.9.243-.488,70.224,105.9Z" fill="#2d81ca"/>
        <path id="Path_1100" data-name="Path 1100" d="M420.876,147.714l-70.224-105.9.243-.488,70.224,105.9Z" fill="#2d81ca"/>
        <path id="Path_1101" data-name="Path 1101" d="M419.459,150.562l-70.224-105.9.243-.488,70.224,105.9Z" fill="#2d81ca"/>
        <path id="Path_1102" data-name="Path 1102" d="M418.042,153.41l-70.224-105.9.243-.488,70.224,105.9Z" fill="#2d81ca"/>
        <path id="Path_1103" data-name="Path 1103" d="M416.624,156.259,346.4,50.36l.243-.488,70.224,105.9Z" fill="#2d81ca"/>
        <path id="Path_1104" data-name="Path 1104" d="M415.207,159.107l-70.224-105.9.243-.488,70.224,105.9Z" fill="#2d81ca"/>
        <path id="Path_1105" data-name="Path 1105" d="M413.79,161.956l-70.224-105.9.243-.488,70.224,105.9Z" fill="#2d81ca"/>
        <path id="Path_1106" data-name="Path 1106" d="M412.373,164.8,342.149,58.9l.243-.488,70.224,105.9Z" fill="#2d81ca"/>
        <path id="Path_1107" data-name="Path 1107" d="M410.956,167.653l-70.224-105.9.243-.488,70.224,105.9Z" fill="#2d81ca"/>
        <path id="Path_1108" data-name="Path 1108" d="M409.579,170.42l-70.224-105.9.243-.488,70.224,105.9Z" fill="#2d81ca"/>
        <path id="Path_1109" data-name="Path 1109" d="M408.162,173.268l-70.224-105.9.243-.488L408.4,172.78Z" fill="#2d81ca"/>
        <path id="Path_1110" data-name="Path 1110" d="M406.745,176.117l-70.224-105.9.243-.488,70.224,105.9Z" fill="#2d81ca"/>
        <path id="Path_1111" data-name="Path 1111" d="M405.328,178.965,335.1,73.066l.243-.488,70.224,105.9Z" fill="#2d81ca"/>
        <path id="Path_1112" data-name="Path 1112" d="M403.911,181.814l-70.224-105.9.243-.488,70.224,105.9Z" fill="#2d81ca"/>
        <path id="Path_1113" data-name="Path 1113" d="M402.493,184.662l-70.224-105.9.243-.488,70.224,105.9Z" fill="#2d81ca"/>
        <path id="Path_1114" data-name="Path 1114" d="M401.076,187.511l-70.224-105.9.243-.488,70.224,105.9Z" fill="#2d81ca"/>
        <path id="Path_1115" data-name="Path 1115" d="M399.659,190.359,329.435,84.46l.243-.488,70.224,105.9Z" fill="#2d81ca"/>
      </g>
    </g>
    <path id="Path_1117" data-name="Path 1117" d="M382.48,102.395l5.879-3.56.062-12.681-2.2.424Z" fill="#2d81ca"/>
    <path id="Path_1118" data-name="Path 1118" d="M381.98,102.611,385.861,86.2l3-.579L388.8,99.082l-6.31,3.821Zm4.6-15.658-3.436,14.528,4.779-2.893.058-11.9Z"/>
    <path id="Path_1119" data-name="Path 1119" d="M389.509,80.038,397.6,75.3l3.718,18.4-7.581,9.007Z" fill="#fad105"/>
    <path id="Path_1120" data-name="Path 1120" d="M393.476,103.7l-4.453-23.885L397.6,74.8l.39.226,3.8,18.8Zm-3.481-23.441,4,21.465,6.85-8.139-3.555-17.6Z"/>
    <path id="Path_1121" data-name="Path 1121" d="M374.387,71.307l8.09-4.734,2.967,15.786L378.6,93.973Z" fill="#fad105"/>
    <path id="Path_1122" data-name="Path 1122" d="M378.38,95.2,373.9,71.085l8.576-5.018.392.228L385.9,82.44Zm-3.508-23.672,3.942,21.216,6.169-10.467-2.821-15.014Z"/>
    <path id="Path_1123" data-name="Path 1123" d="M398.326,111.543l-8.438-4.871L387.359,93.7q-.182-.827-.569-3.2t-.569-3.924q-.146,1.092-.47,2.647t-.641,2.837q-.316,1.281-2.63,10.334l-8.437-4.871L367.5,67.333l6.883,3.974,2.873,14.9c.651,3.3,1.161,5.445,1.4,7.318.156-1.138.372-2.2.775-4.074s.78-3.4,1.13-4.588l2.33-8.646,6.613,3.818,2.258,11.295q.579,2.737,1.175,6.225c.4,2.325.6,3.56.733,4.672.157-1.246.645-2.834,1.344-5.731l2.927-11.589,6.884,3.974Z" fill="#fad105"/>
    <path id="Path_1124" data-name="Path 1124" d="M367.5,67.333l8.09-4.734,6.884,3.974-8.09,4.734Z" fill="#fad105"/>
    <path id="Path_1125" data-name="Path 1125" d="M382.9,76.22l8.09-4.734L397.6,75.3l-8.09,4.734Z" fill="#fad105"/>
    <path id="Path_1126" data-name="Path 1126" d="M397.946,84.91l8.09-4.734,6.884,3.974-8.09,4.734Z" fill="#fad105"/>
    <path id="Path_1127" data-name="Path 1127" d="M367.706,70.125l8.09-4.734,6.746,3.895.027.144-7.98,4.67Z" fill="#fec"/>
    <path id="Path_1128" data-name="Path 1128" d="M382.679,79.013l8.09-4.734,6.613,3.818-8.09,4.734Z" fill="#fec"/>
    <path id="Path_1129" data-name="Path 1129" d="M397.73,87.7l8.09-4.734,6.884,3.974-8.09,4.734Z" fill="#fec"/>
    <path id="Path_1130" data-name="Path 1130" d="M413.435,83.942l-7.4-4.272-8.468,4.955L394.594,96.4q-.495,2.05-.811,3.567c-.116-.727-.252-1.551-.41-2.479-.4-2.336-.8-4.436-1.177-6.237L390,80.258l8.091-4.734h0l-.1-.5-7.005-4.043-8.464,4.953-2.373,8.808c-.352,1.188-.734,2.743-1.138,4.619q-.215,1-.383,1.863c-.244-1.458-.557-3.162-.938-5.1l-2.814-14.6,8.089-4.733h0l-.094-.5-7.277-4.2-8.583,5.022,6.648,30.689,8.829,5.1h0l.373-.226c1.544-6.038,2.464-9.657,2.675-10.512s.418-1.773.633-2.793q.087.567.191,1.2c.264,1.611.452,2.665.571,3.214l2.568,13.165,8.83,5.1,8.461-4.951Zm-14.618.965,7.222-4.226,6.011,3.471-1.621.949-5.6,3.277-4.1-2.364Zm-15.051-8.689,7.222-4.226,5.741,3.315-7.221,4.226-4.883-2.819ZM368.373,67.33,375.6,63.1l6.012,3.472L374.385,70.8Zm21.906,39.063-2.493-12.784c-.117-.536-.308-1.605-.566-3.178-.262-1.609-.448-2.886-.565-3.9l-.868-.007c-.1.717-.251,1.6-.463,2.614s-.429,1.972-.639,2.822q-.306,1.24-2.486,9.772l-7.77-4.486-6.29-29.037,5.856,3.381,2.835,14.708c.645,3.272,1.023,5.343,1.263,7.2l.937.535c.154-1.122.435-2.631.834-4.487s.776-3.388,1.124-4.565l2.182-8.1.483.28,5.466,3.155,2.22,11.106c.38,1.795.775,3.884,1.172,6.208s.6,3.51.726,4.6l.933.535c.154-1.222.582-3.3,1.272-6.162l2.787-11.029,6.086,3.515-6.255,21.793Zm8.768,4.222L405.2,89.173l4.792-2.8,2.205-1.291-6.155,21.442Z"/>
    <path id="Path_1131" data-name="Path 1131" d="M398.326,111.543l8.09-4.734,6.5-22.659-8.09,4.734Z" fill="#2d81ca"/>
    <g id="Group_1041" data-name="Group 1041">
      <g id="Group_1040" data-name="Group 1040" clip-path="url(#clip-path-5)">
        <path id="Path_1132" data-name="Path 1132" d="M491.476,188.892l-70.224-105.9.243-.488,70.224,105.9Z" fill="#2d81ca"/>
        <path id="Path_1133" data-name="Path 1133" d="M490.058,191.74l-70.224-105.9.243-.488,70.224,105.9Z" fill="#2d81ca"/>
        <path id="Path_1134" data-name="Path 1134" d="M488.641,194.589l-70.224-105.9.243-.488,70.224,105.9Z" fill="#2d81ca"/>
        <path id="Path_1135" data-name="Path 1135" d="M487.224,197.437,417,91.538l.243-.488,70.224,105.9Z" fill="#2d81ca"/>
        <path id="Path_1136" data-name="Path 1136" d="M485.807,200.286l-70.224-105.9.243-.488L486.05,199.8Z" fill="#2d81ca"/>
        <path id="Path_1137" data-name="Path 1137" d="M484.39,203.134l-70.224-105.9.243-.488,70.224,105.9Z" fill="#2d81ca"/>
        <path id="Path_1138" data-name="Path 1138" d="M482.973,205.982l-70.224-105.9.243-.488,70.224,105.9Z" fill="#2d81ca"/>
        <path id="Path_1139" data-name="Path 1139" d="M481.556,208.831l-70.224-105.9.243-.488,70.224,105.9Z" fill="#2d81ca"/>
        <path id="Path_1140" data-name="Path 1140" d="M480.139,211.679l-70.224-105.9.243-.488,70.224,105.9Z" fill="#2d81ca"/>
        <path id="Path_1141" data-name="Path 1141" d="M478.762,214.447l-70.224-105.9.243-.488L479,213.958Z" fill="#2d81ca"/>
        <path id="Path_1142" data-name="Path 1142" d="M477.345,217.295,407.12,111.4l.243-.488,70.224,105.9Z" fill="#2d81ca"/>
        <path id="Path_1143" data-name="Path 1143" d="M475.928,220.143,405.7,114.244l.243-.488,70.224,105.9Z" fill="#2d81ca"/>
        <path id="Path_1144" data-name="Path 1144" d="M474.51,222.992l-70.224-105.9.243-.488,70.224,105.9Z" fill="#2d81ca"/>
        <path id="Path_1145" data-name="Path 1145" d="M473.093,225.84l-70.224-105.9.243-.488,70.224,105.9Z" fill="#2d81ca"/>
        <path id="Path_1146" data-name="Path 1146" d="M471.676,228.689l-70.224-105.9.243-.488,70.224,105.9Z" fill="#2d81ca"/>
        <path id="Path_1147" data-name="Path 1147" d="M470.259,231.537l-70.224-105.9.243-.488,70.224,105.9Z" fill="#2d81ca"/>
        <path id="Path_1148" data-name="Path 1148" d="M468.842,234.386l-70.224-105.9.243-.488,70.224,105.9Z" fill="#2d81ca"/>
        <path id="Path_1149" data-name="Path 1149" d="M467.43,237.224l-70.224-105.9.243-.488,70.224,105.9Z" fill="#2d81ca"/>
        <path id="Path_1150" data-name="Path 1150" d="M466.013,240.073l-70.224-105.9.243-.488,70.224,105.9Z" fill="#2d81ca"/>
        <path id="Path_1151" data-name="Path 1151" d="M464.6,242.921l-70.224-105.9.243-.488,70.224,105.9Z" fill="#2d81ca"/>
        <path id="Path_1152" data-name="Path 1152" d="M463.178,245.77l-70.224-105.9.243-.488,70.224,105.9Z" fill="#2d81ca"/>
        <path id="Path_1153" data-name="Path 1153" d="M461.761,248.618l-70.224-105.9.243-.488L462,248.13Z" fill="#2d81ca"/>
        <path id="Path_1154" data-name="Path 1154" d="M460.344,251.467l-70.224-105.9.243-.488,70.224,105.9Z" fill="#2d81ca"/>
        <path id="Path_1155" data-name="Path 1155" d="M458.927,254.315,388.7,148.416l.243-.488,70.224,105.9Z" fill="#2d81ca"/>
        <path id="Path_1156" data-name="Path 1156" d="M457.51,257.163l-70.224-105.9.243-.488,70.224,105.9Z" fill="#2d81ca"/>
        <path id="Path_1157" data-name="Path 1157" d="M456.133,259.931l-70.224-105.9.243-.488,70.224,105.9Z" fill="#2d81ca"/>
        <path id="Path_1158" data-name="Path 1158" d="M454.716,262.779l-70.224-105.9.243-.488,70.224,105.9Z" fill="#2d81ca"/>
        <path id="Path_1159" data-name="Path 1159" d="M453.3,265.628l-70.224-105.9.243-.488,70.224,105.9Z" fill="#2d81ca"/>
        <path id="Path_1160" data-name="Path 1160" d="M451.882,268.476l-70.224-105.9.243-.488,70.224,105.9Z" fill="#2d81ca"/>
        <path id="Path_1161" data-name="Path 1161" d="M450.465,271.324l-70.224-105.9.243-.488,70.224,105.9Z" fill="#2d81ca"/>
        <path id="Path_1162" data-name="Path 1162" d="M449.048,274.173l-70.224-105.9.243-.488,70.224,105.9Z" fill="#2d81ca"/>
        <path id="Path_1163" data-name="Path 1163" d="M447.63,277.021l-70.224-105.9.243-.488,70.224,105.9Z" fill="#2d81ca"/>
        <path id="Path_1164" data-name="Path 1164" d="M446.213,279.87l-70.224-105.9.243-.488,70.224,105.9Z" fill="#2d81ca"/>
      </g>
    </g>
    <path id="Path_1166" data-name="Path 1166" d="M422.477,189.688q-5.8-3.348-5.8-10.973a14.933,14.933,0,0,1,.074-1.508l5.909,2.169,3.577-2.149a1.621,1.621,0,0,0,1.35-.3l2.748-2.16a36.483,36.483,0,0,0-8.184-6.586,14.218,14.218,0,0,0-6.821-2.267,5.6,5.6,0,0,0-2.645.6l0,0-.256.153c-.069.042-.141.08-.208.125l-7.462,4.473,4.6,2.8c0,.128-.009.249-.009.38a25.431,25.431,0,0,0,.18,3l-.362-.255-1.636.9-.139,9.678s6.718,8.145,6.823,8.215,7.3,1.775,7.3,1.775l2.651-1.411a17.776,17.776,0,0,0,5.025,1.579V191.9a30.531,30.531,0,0,1-3.307-.734A14.9,14.9,0,0,1,422.477,189.688Z" fill="#fad105"/>
    <path id="Path_1167" data-name="Path 1167" d="M422.161,191.8q-5.8-3.35-5.8-10.973a14.948,14.948,0,0,1,.075-1.509l5.908,2.169,3.578-2.148a1.626,1.626,0,0,0,1.349-.3l1.427-1.122a1.51,1.51,0,0,0,.1-2.274,35.388,35.388,0,0,0-6.966-5.351,14.208,14.208,0,0,0-6.821-2.266,5.6,5.6,0,0,0-2.645.6h-.005l-.255.153c-.069.042-.142.079-.209.125l-7.461,4.473,4.6,2.8c0,.127-.009.249-.009.379a25.405,25.405,0,0,0,.18,3l-.362-.254-1.636.905-.139,9.677s6.718,8.146,6.822,8.215,7.3,1.776,7.3,1.776l2.651-1.411c1.813.841,3.37-.991,4.9-.785l.121-3.671a30.483,30.483,0,0,1-3.307-.735A14.853,14.853,0,0,1,422.161,191.8Z" fill="#fec"/>
    <path id="Path_1168" data-name="Path 1168" d="M429.617,198.177l-.343.206-.152-.02a18.046,18.046,0,0,1-4.953-1.524l-2.605,1.387-.161-.038c-7.268-1.724-7.354-1.782-7.438-1.838s-.158-.105-6.917-8.3l-.1-.124.146-10.092,1.921-1.063c-.071-.778-.107-1.558-.107-2.327l0-.139-4.468-3.362,7.553-4.527c.031-.022.086-.053.14-.085l.51-.3.024.01a6.132,6.132,0,0,1,2.658-.559h.006a14.679,14.679,0,0,1,7.039,2.326,37.1,37.1,0,0,1,8.284,6.664l.21.222-2.38,4.744-.408.246-.241-.253c-.5-.525-1.046-1.067-1.657-1.652l-3.471,2.084-5.565-2.042c-.018.294-.027.592-.027.9,0,4.961,1.825,8.427,5.581,10.6a14.522,14.522,0,0,0,3.3,1.43,30.334,30.334,0,0,0,3.259.724l.366.06Zm-5.476-2.314.2.091a18.267,18.267,0,0,0,4.4,1.465v-5.155c-1-.176-2-.406-2.987-.682a15.41,15.41,0,0,1-3.5-1.515h0c-3.993-2.305-6.018-6.125-6.018-11.352a15.159,15.159,0,0,1,.077-1.552l.056-.56,6.241,2.29,3.683-2.211.241.229c.545.517,1.039,1,1.5,1.467l1.772-3.532a36.054,36.054,0,0,0-7.875-6.287,13.857,13.857,0,0,0-6.6-2.208h-.006a5.2,5.2,0,0,0-2.434.55l-.322.189c-.035.021-.071.04-.1.062l-6.863,4.115,4.191,2.553-.012.624a25.015,25.015,0,0,0,.176,2.948l.117.974-.941-.662-1.174.649-.133,9.264c2.472,3,6.075,7.354,6.626,7.988.657.181,4.4,1.078,6.993,1.694Z"/>
    <path id="Path_1169" data-name="Path 1169" d="M416.532,178.715c0-.482.025-.923.062-1.342l-5.475-1.116-3.753,2.717-.127,8.8s.462.572,2.421,2.934l2.171,1.112,7.625-4.528-.187-.161A12.656,12.656,0,0,1,416.532,178.715Z" fill="#2d81ca"/>
    <path id="Path_1170" data-name="Path 1170" d="M414.4,178.6q-2.549-1.47-3.975-.207T409,183.324q0,7.624,5.8,10.973a14.928,14.928,0,0,0,3.4,1.473,30.7,30.7,0,0,0,3.306.734v6.035a21.028,21.028,0,0,1-7.48-2.855,24.966,24.966,0,0,1-9.168-8.763,22.6,22.6,0,0,1-3.19-11.869,10.96,10.96,0,0,1,1.545-6.316,5.079,5.079,0,0,1,4.444-2.213,14.2,14.2,0,0,1,6.821,2.267,36.51,36.51,0,0,1,8.185,6.586l-2.186,4.357q-1.464-1.531-2.928-2.847A18.659,18.659,0,0,0,414.4,178.6Z" fill="#fad105"/>
    <path id="Path_1171" data-name="Path 1171" d="M422.661,179.376l7.676-4.609-2.186,4.357-7.676,4.609Z" fill="#2d81ca"/>
    <path id="Path_1172" data-name="Path 1172" d="M421.5,196.5l7.676-4.609v6.034l-7.676,4.609Z" fill="#2d81ca"/>
    <path id="Path_1173" data-name="Path 1173" d="M418.315,195.349a14.49,14.49,0,0,1-3.3-1.431c-3.755-2.168-5.581-5.633-5.581-10.594,0-2.3.43-3.852,1.28-4.6.8-.709,1.935-.625,3.466.259a18.308,18.308,0,0,1,3.07,2.231c.895.805,3.145,3.077,3.145,3.077l8.084-4.855,2.38-4.744h0l-.454-.477-7.678,4.612a36.891,36.891,0,0,0-8.037-6.412,14.686,14.686,0,0,0-7.039-2.326h-.007a5.515,5.515,0,0,0-4.8,2.4,11.428,11.428,0,0,0-1.624,6.567,23.143,23.143,0,0,0,3.252,12.094,25.51,25.51,0,0,0,9.325,8.916,42.582,42.582,0,0,0,7.793,2.93l8.018-4.815v-6.653l-.524-.086-7.671,4.6A30.237,30.237,0,0,1,418.315,195.349Zm9.5-16.534-6.276,3.768.6-1.2.851-1.7,6.276-3.768Zm-13.574,20.491a24.664,24.664,0,0,1-9.013-8.61,22.274,22.274,0,0,1-3.127-11.644,10.6,10.6,0,0,1,1.467-6.066,4.625,4.625,0,0,1,4.079-2.026h.006a13.863,13.863,0,0,1,6.6,2.208,36.072,36.072,0,0,1,7.874,6.287l-1.771,3.53c-.837-.856-1.683-1.67-2.522-2.424a19.054,19.054,0,0,0-3.217-2.337c-1.872-1.081-3.379-1.133-4.482-.158-1.06.937-1.575,2.657-1.575,5.258,0,5.226,2.025,9.046,6.018,11.351a15.383,15.383,0,0,0,3.5,1.516c.988.276,1.991.506,2.987.682v5.155A21.625,21.625,0,0,1,414.243,199.306Zm14.5-1.624-6.8,4.084v-5.014l6.8-4.084Z"/>
    <g id="Group_1043" data-name="Group 1043">
      <g id="Group_1042" data-name="Group 1042" clip-path="url(#clip-path-6)">
        <path id="Path_1174" data-name="Path 1174" d="M485.09,139.821l-70.224-105.9.243-.488,70.224,105.9Z" fill="#2d81ca"/>
        <path id="Path_1175" data-name="Path 1175" d="M483.673,142.67l-70.224-105.9.243-.488,70.224,105.9Z" fill="#2d81ca"/>
        <path id="Path_1176" data-name="Path 1176" d="M482.256,145.518l-70.224-105.9.243-.488L482.5,145.03Z" fill="#2d81ca"/>
        <path id="Path_1177" data-name="Path 1177" d="M480.839,148.367l-70.224-105.9.243-.488,70.224,105.9Z" fill="#2d81ca"/>
        <path id="Path_1178" data-name="Path 1178" d="M479.421,151.215,409.2,45.316l.243-.488,70.224,105.9Z" fill="#2d81ca"/>
        <path id="Path_1179" data-name="Path 1179" d="M478,154.063,407.78,48.164l.243-.488,70.224,105.9Z" fill="#2d81ca"/>
        <path id="Path_1180" data-name="Path 1180" d="M476.587,156.912l-70.224-105.9.243-.488,70.224,105.9Z" fill="#2d81ca"/>
        <path id="Path_1181" data-name="Path 1181" d="M475.17,159.76l-70.224-105.9.243-.488,70.224,105.9Z" fill="#2d81ca"/>
        <path id="Path_1182" data-name="Path 1182" d="M473.753,162.609,403.529,56.71l.243-.488L474,162.12Z" fill="#2d81ca"/>
        <path id="Path_1183" data-name="Path 1183" d="M472.376,165.376l-70.224-105.9.243-.488,70.224,105.9Z" fill="#2d81ca"/>
        <path id="Path_1184" data-name="Path 1184" d="M470.959,168.224l-70.224-105.9.243-.488,70.224,105.9Z" fill="#2d81ca"/>
        <path id="Path_1185" data-name="Path 1185" d="M469.542,171.073l-70.224-105.9.243-.488,70.224,105.9Z" fill="#2d81ca"/>
        <path id="Path_1186" data-name="Path 1186" d="M468.125,173.921,397.9,68.022l.243-.488,70.224,105.9Z" fill="#2d81ca"/>
        <path id="Path_1187" data-name="Path 1187" d="M466.708,176.77,396.483,70.87l.243-.488,70.224,105.9Z" fill="#2d81ca"/>
        <path id="Path_1188" data-name="Path 1188" d="M465.291,179.618l-70.224-105.9.243-.488,70.224,105.9Z" fill="#2d81ca"/>
        <path id="Path_1189" data-name="Path 1189" d="M463.873,182.467l-70.224-105.9.243-.488,70.224,105.9Z" fill="#2d81ca"/>
        <path id="Path_1190" data-name="Path 1190" d="M462.456,185.315l-70.224-105.9.243-.488,70.224,105.9Z" fill="#2d81ca"/>
        <path id="Path_1191" data-name="Path 1191" d="M461.044,188.154,390.82,82.254l.243-.488,70.224,105.9Z" fill="#2d81ca"/>
        <path id="Path_1192" data-name="Path 1192" d="M459.627,191,389.4,85.1l.243-.488,70.224,105.9Z" fill="#2d81ca"/>
        <path id="Path_1193" data-name="Path 1193" d="M458.21,193.85l-70.224-105.9.243-.488,70.224,105.9Z" fill="#2d81ca"/>
        <path id="Path_1194" data-name="Path 1194" d="M456.793,196.7,386.568,90.8l.243-.488,70.224,105.9Z" fill="#2d81ca"/>
        <path id="Path_1195" data-name="Path 1195" d="M455.376,199.547l-70.224-105.9.243-.488,70.224,105.9Z" fill="#2d81ca"/>
        <path id="Path_1196" data-name="Path 1196" d="M453.958,202.4,383.734,96.5l.243-.488,70.224,105.9Z" fill="#2d81ca"/>
        <path id="Path_1197" data-name="Path 1197" d="M452.541,205.245l-70.224-105.9.243-.488,70.224,105.9Z" fill="#2d81ca"/>
        <path id="Path_1198" data-name="Path 1198" d="M451.124,208.093,380.9,102.194l.243-.488,70.224,105.9Z" fill="#2d81ca"/>
        <path id="Path_1199" data-name="Path 1199" d="M449.748,210.86l-70.224-105.9.243-.488,70.224,105.9Z" fill="#2d81ca"/>
        <path id="Path_1200" data-name="Path 1200" d="M448.33,213.708l-70.224-105.9.243-.488,70.224,105.9Z" fill="#2d81ca"/>
        <path id="Path_1201" data-name="Path 1201" d="M446.913,216.557l-70.224-105.9.243-.488,70.224,105.9Z" fill="#2d81ca"/>
        <path id="Path_1202" data-name="Path 1202" d="M445.5,219.405l-70.224-105.9.243-.488,70.224,105.9Z" fill="#2d81ca"/>
        <path id="Path_1203" data-name="Path 1203" d="M444.079,222.254l-70.224-105.9.243-.488,70.224,105.9Z" fill="#2d81ca"/>
        <path id="Path_1204" data-name="Path 1204" d="M442.662,225.1,372.438,119.2l.243-.488,70.224,105.9Z" fill="#2d81ca"/>
        <path id="Path_1205" data-name="Path 1205" d="M441.245,227.951l-70.224-105.9.243-.488,70.224,105.9Z" fill="#2d81ca"/>
        <path id="Path_1206" data-name="Path 1206" d="M439.828,230.8,369.6,124.9l.243-.488,70.224,105.9Z" fill="#2d81ca"/>
      </g>
    </g>
    <path id="Path_1208" data-name="Path 1208" d="M437.58,107.343l-8.52-4.919-15.682,9.054,8.52,4.919Z" fill="#fad105"/>
    <path id="Path_1209" data-name="Path 1209" d="M437.435,109.759l-8.52-4.919-15.682,9.054,8.52,4.919Z" fill="#fec"/>
    <path id="Path_1210" data-name="Path 1210" d="M413.378,137.893l8.52,4.919V116.4l-8.52-4.919Z" fill="#fad105"/>
    <path id="Path_1211" data-name="Path 1211" d="M436.948,117.591l-3.519-2.124L429.034,118v4.156Z" fill="#fad105"/>
    <path id="Path_1212" data-name="Path 1212" d="M437.58,127.939l-4.372-2.462-4.174,2.41v4.986Z" fill="#fad105"/>
    <path id="Path_1213" data-name="Path 1213" d="M436.725,119.6l-3.519-2.124-4.394,2.537v4.156Z" fill="#fec"/>
    <path id="Path_1214" data-name="Path 1214" d="M437.357,129.946l-4.372-2.462-4.173,2.41v4.986Z" fill="#fec"/>
    <path id="Path_1215" data-name="Path 1215" d="M438.017,127.684l-3.927-2.211,3.3-1.9v-6.226l-3.1-1.869,3.729-2.153V107.09l-8.957-5.17-16.12,9.306v26.919l8.957,5.171,16.12-9.307Zm-4.807-1.7,3.487,1.963-7.226,4.172v-3.977Zm.213-10.007,2.665,1.608-6.617,3.82v-3.146Zm-4.363-13.045,7.646,4.413-14.809,8.55-7.645-4.414Zm-15.245,34.712V112.236l7.645,4.413v25.4Zm8.519,4.413v-25.4l14.809-8.549v4.718l-8.546,4.934v5.165l7.914-4.569v4.718l-3.306,1.908h0l-4.608,2.661v6l8.546-4.934v4.808Z"/>
    <path id="Path_1216" data-name="Path 1216" d="M437.58,133.757,421.9,142.811V116.4l15.682-9.054v5.727L429.034,118v4.156l7.914-4.569v5.727l-7.914,4.569v4.986l8.546-4.934Z" fill="#2d81ca"/>
    <g id="Group_1045" data-name="Group 1045">
      <g id="Group_1044" data-name="Group 1044" clip-path="url(#clip-path-7)">
        <path id="Path_1217" data-name="Path 1217" d="M418.1,202.786l-70.224-105.9.243-.488,70.224,105.9Z" fill="#2d81ca"/>
        <path id="Path_1218" data-name="Path 1218" d="M416.679,205.635l-70.224-105.9.243-.488,70.224,105.9Z" fill="#2d81ca"/>
        <path id="Path_1219" data-name="Path 1219" d="M415.262,208.483l-70.224-105.9.243-.488L415.5,208Z" fill="#2d81ca"/>
        <path id="Path_1220" data-name="Path 1220" d="M413.845,211.332l-70.224-105.9.243-.488,70.224,105.9Z" fill="#2d81ca"/>
        <path id="Path_1221" data-name="Path 1221" d="M412.427,214.18,342.2,108.281l.243-.488,70.224,105.9Z" fill="#2d81ca"/>
        <path id="Path_1222" data-name="Path 1222" d="M411.01,217.029l-70.224-105.9.243-.488,70.224,105.9Z" fill="#2d81ca"/>
        <path id="Path_1223" data-name="Path 1223" d="M409.593,219.877l-70.224-105.9.243-.488,70.224,105.9Z" fill="#2d81ca"/>
        <path id="Path_1224" data-name="Path 1224" d="M408.176,222.726l-70.224-105.9.243-.488,70.224,105.9Z" fill="#2d81ca"/>
        <path id="Path_1225" data-name="Path 1225" d="M406.759,225.574l-70.224-105.9.243-.488L407,225.086Z" fill="#2d81ca"/>
        <path id="Path_1226" data-name="Path 1226" d="M405.382,228.341l-70.224-105.9.243-.488,70.224,105.9Z" fill="#2d81ca"/>
        <path id="Path_1227" data-name="Path 1227" d="M403.965,231.19l-70.224-105.9.243-.488,70.224,105.9Z" fill="#2d81ca"/>
        <path id="Path_1228" data-name="Path 1228" d="M402.548,234.038l-70.224-105.9.243-.488,70.224,105.9Z" fill="#2d81ca"/>
        <path id="Path_1229" data-name="Path 1229" d="M401.131,236.887l-70.224-105.9.243-.488,70.224,105.9Z" fill="#2d81ca"/>
        <path id="Path_1230" data-name="Path 1230" d="M399.714,239.735l-70.224-105.9.243-.488,70.224,105.9Z" fill="#2d81ca"/>
        <path id="Path_1231" data-name="Path 1231" d="M398.3,242.584l-70.224-105.9.243-.488L398.54,242.1Z" fill="#2d81ca"/>
        <path id="Path_1232" data-name="Path 1232" d="M396.879,245.432l-70.224-105.9.243-.488,70.224,105.9Z" fill="#2d81ca"/>
        <path id="Path_1233" data-name="Path 1233" d="M395.462,248.281l-70.224-105.9.243-.488,70.224,105.9Z" fill="#2d81ca"/>
        <path id="Path_1234" data-name="Path 1234" d="M394.05,251.119l-70.224-105.9.243-.488,70.224,105.9Z" fill="#2d81ca"/>
        <path id="Path_1235" data-name="Path 1235" d="M392.633,253.967l-70.224-105.9.243-.488,70.224,105.9Z" fill="#2d81ca"/>
        <path id="Path_1236" data-name="Path 1236" d="M391.216,256.816l-70.224-105.9.243-.488,70.224,105.9Z" fill="#2d81ca"/>
        <path id="Path_1237" data-name="Path 1237" d="M389.8,259.664l-70.224-105.9.243-.488,70.224,105.9Z" fill="#2d81ca"/>
        <path id="Path_1238" data-name="Path 1238" d="M388.382,262.513l-70.224-105.9.243-.488,70.224,105.9Z" fill="#2d81ca"/>
        <path id="Path_1239" data-name="Path 1239" d="M386.965,265.361l-70.224-105.9.243-.488,70.224,105.9Z" fill="#2d81ca"/>
        <path id="Path_1240" data-name="Path 1240" d="M385.547,268.21l-70.224-105.9.243-.488,70.224,105.9Z" fill="#2d81ca"/>
        <path id="Path_1241" data-name="Path 1241" d="M384.13,271.058l-70.224-105.9.243-.488,70.224,105.9Z" fill="#2d81ca"/>
        <path id="Path_1242" data-name="Path 1242" d="M382.754,273.825l-70.224-105.9.243-.488L383,273.337Z" fill="#2d81ca"/>
        <path id="Path_1243" data-name="Path 1243" d="M381.337,276.674l-70.224-105.9.243-.488,70.224,105.9Z" fill="#2d81ca"/>
        <path id="Path_1244" data-name="Path 1244" d="M379.919,279.522,309.7,173.623l.243-.488,70.224,105.9Z" fill="#2d81ca"/>
        <path id="Path_1245" data-name="Path 1245" d="M378.5,282.371l-70.224-105.9.243-.488,70.224,105.9Z" fill="#2d81ca"/>
        <path id="Path_1246" data-name="Path 1246" d="M377.085,285.219l-70.224-105.9.243-.488,70.224,105.9Z" fill="#2d81ca"/>
        <path id="Path_1247" data-name="Path 1247" d="M375.668,288.068l-70.224-105.9.243-.488,70.224,105.9Z" fill="#2d81ca"/>
        <path id="Path_1248" data-name="Path 1248" d="M374.251,290.916l-70.224-105.9.243-.488,70.224,105.9Z" fill="#2d81ca"/>
        <path id="Path_1249" data-name="Path 1249" d="M372.834,293.764l-70.224-105.9.243-.488,70.224,105.9Z" fill="#2d81ca"/>
      </g>
    </g>
    <ellipse id="Ellipse_39" data-name="Ellipse 39" cx="8.556" cy="5.125" rx="8.556" ry="5.125" transform="translate(367.384 196.221)" fill="#fad105"/>
    <path id="Path_1251" data-name="Path 1251" d="M391,201.584c-.525-.375-1.087-.748-1.728-1.118-.181-.105-.364-.194-.546-.293a14.093,14.093,0,0,0,1.343-1.712c-.035-.139-7.241-6.126-7.241-6.126l-10.2.766-4.247,5.4.363,1.091c-.79.363-1.579.759-2.364,1.213a23.46,23.46,0,0,0-2.51,1.653l-3.394-1.741-.019,6.822q-.149,3.4,5.234,6.509a21.546,21.546,0,0,0,11.3,3.054,23.869,23.869,0,0,0,11.61-3.433q5.789-3.342,5.961-6.694l.005-7.384Zm-18.142,2.157q6.7-3.867,11.344-1.184a4.739,4.739,0,0,1,1.444,1.192l-8.422,4.721-6.473-3.322A16.982,16.982,0,0,1,372.859,203.741Z" fill="#fad105"/>
    <path id="Path_1252" data-name="Path 1252" d="M376.642,217.537a22.131,22.131,0,0,1-11.168-3.115c-3.724-2.15-5.557-4.474-5.451-6.907l.02-7.518,3.784,1.942a24.8,24.8,0,0,1,2.336-1.517c.641-.37,1.313-.721,2.045-1.067l-.314-.944,4.511-5.732,10.568-.793.135.112c7.316,6.079,7.341,6.177,7.386,6.357.058.232.075.3-1.085,1.686l.081.046c.518.3,1.011.614,1.538.981L395,198.84,395,206.97c-.124,2.436-2.145,4.743-6.18,7.073A24.385,24.385,0,0,1,377,217.534Zm-15.728-16.111-.017,6.109c-.092,2.1,1.6,4.156,5.014,6.13a21.339,21.339,0,0,0,11.071,3,23.533,23.533,0,0,0,11.4-3.374c3.7-2.14,5.638-4.272,5.744-6.338l0-6.616-3.155,1.769-.225-.161c-.591-.422-1.129-.77-1.694-1.1-.107-.061-.214-.118-.322-.174l-.685-.371.346-.409c.635-.75.955-1.15,1.116-1.362-.928-.824-4.391-3.723-6.823-5.744l-9.832.738-3.982,5.06.413,1.238-.356.164c-.848.389-1.61.78-2.329,1.2a22.882,22.882,0,0,0-2.463,1.622l-.219.167Zm16.32,7.54-7.282-3.737.527-.422a17.394,17.394,0,0,1,2.162-1.445c4.589-2.65,8.552-3.047,11.78-1.183A5.2,5.2,0,0,1,386,203.485l.3.4Zm-5.662-3.889,5.643,2.9,7.741-4.338a5.353,5.353,0,0,0-.972-.7c-2.937-1.695-6.608-1.3-10.906,1.184h0C372.517,204.442,372.013,204.763,371.572,205.077Z"/>
    <path id="Path_1253" data-name="Path 1253" d="M388.619,206.006a23.869,23.869,0,0,1-11.61,3.433,21.546,21.546,0,0,1-11.3-3.054q-5.384-3.108-5.234-6.509t5.922-6.734a23.692,23.692,0,0,1,11.579-3.388,21.639,21.639,0,0,1,11.313,3.054q5.46,3.151,5.288,6.5T388.619,206.006Zm-15.741-9.088q-6.635,3.829-2.018,6.495a8.293,8.293,0,0,0,5.093,1.08,15.793,15.793,0,0,0,6.156-2.245q3.428-1.979,3.912-3.587t-1.8-2.926Q379.575,193.051,372.878,196.918Z" fill="#fad105"/>
    <path id="Path_1254" data-name="Path 1254" d="M394.148,199.87c-.716-1.525-2.317-3.018-4.848-4.479a21.633,21.633,0,0,0-11.312-3.054,23.691,23.691,0,0,0-11.579,3.388q-4.377,2.527-5.516,5.094v3.6c.693,1.564,2.289,3.079,4.827,4.544a21.552,21.552,0,0,0,11.3,3.054,23.862,23.862,0,0,0,11.609-3.433q4.338-2.5,5.521-5.012Zm-8.118,1.375q-.486,1.608-3.912,3.586a15.793,15.793,0,0,1-6.156,2.245,8.3,8.3,0,0,1-5.094-1.08q-4.616-2.664,2.019-6.495,6.7-3.866,11.344-1.183Q386.516,199.637,386.03,201.245Z" fill="#fec"/>
    <path id="Path_1255" data-name="Path 1255" d="M376.661,209.878a22.131,22.131,0,0,1-11.168-3.115c-3.724-2.149-5.558-4.473-5.452-6.906.108-2.449,2.116-4.77,6.141-7.094a24.211,24.211,0,0,1,11.79-3.446,22.065,22.065,0,0,1,11.538,3.112c3.777,2.18,5.629,4.5,5.506,6.9s-2.144,4.721-6.179,7.05h0a24.4,24.4,0,0,1-11.821,3.492C376.9,209.878,376.779,209.878,376.661,209.878Zm1.637-19.689c-.1,0-.208,0-.313,0a23.353,23.353,0,0,0-11.366,3.329c-3.693,2.133-5.612,4.277-5.7,6.375-.091,2.081,1.6,4.138,5.015,6.112A21.242,21.242,0,0,0,377,209a23.55,23.55,0,0,0,11.4-3.374h0c3.705-2.14,5.638-4.273,5.744-6.338.1-2.048-1.6-4.1-5.071-6.1A21.36,21.36,0,0,0,378.3,190.189Zm-3.253,14.787a8.687,8.687,0,0,1-4.4-1.185c-1.4-.808-2.113-1.738-2.113-2.761,0-1.417,1.352-2.886,4.131-4.49h0c4.589-2.651,8.552-3.048,11.781-1.183,1.715.989,2.389,2.143,2,3.431-.36,1.193-1.7,2.449-4.111,3.838a16.293,16.293,0,0,1-6.332,2.3A9.263,9.263,0,0,1,375.045,204.976Zm5.03-9.894A14.239,14.239,0,0,0,373.1,197.3h0c-3.052,1.763-3.693,3-3.693,3.734,0,.688.564,1.363,1.675,2a7.906,7.906,0,0,0,4.831,1.024,15.445,15.445,0,0,0,5.982-2.189c2.708-1.564,3.513-2.676,3.712-3.334.1-.316.385-1.276-1.6-2.421A7.71,7.71,0,0,0,380.075,195.082Z"/>
    <path id="Path_1256" data-name="Path 1256" d="M394.566,200.9s-6.035,5.241-6.08,5.216L382.9,208.6l-5.39.791v7.826a24.041,24.041,0,0,0,11.089-3.406q5.789-3.342,5.961-6.694Z" fill="#2d81ca"/>
    <path id="Path_1257" data-name="Path 1257" d="M373.014,203.559a12.131,12.131,0,0,1,5.854-1.983v-6.941a9.227,9.227,0,0,1-2.666.447l-1.716.822c-.34.184-1.6.882-2.559,1.425,0,0-2.748,3.067-2.961,3.171l.517,1.8,2.946,1.618C372.624,203.8,372.8,203.681,373.014,203.559Z" fill="#2d81ca"/>
    <g id="Group_1080" data-name="Group 1080">
      <g id="Group_1079" data-name="Group 1079" clip-path="url(#clip-path-8)">
        <g id="Group_1046" data-name="Group 1046">
          <path id="Path_1258" data-name="Path 1258" d="M481.409,247.5l-70.224-105.9.243-.488,70.224,105.9Z" fill="#2d81ca"/>
        </g>
        <g id="Group_1047" data-name="Group 1047">
          <path id="Path_1259" data-name="Path 1259" d="M479.992,250.353l-70.224-105.9.243-.488,70.224,105.9Z" fill="#2d81ca"/>
        </g>
        <g id="Group_1048" data-name="Group 1048">
          <path id="Path_1260" data-name="Path 1260" d="M478.575,253.2,408.35,147.3l.243-.488,70.224,105.9Z" fill="#2d81ca"/>
        </g>
        <g id="Group_1049" data-name="Group 1049">
          <path id="Path_1261" data-name="Path 1261" d="M477.158,256.05l-70.224-105.9.243-.488,70.224,105.9Z" fill="#2d81ca"/>
        </g>
        <g id="Group_1050" data-name="Group 1050">
          <path id="Path_1262" data-name="Path 1262" d="M475.74,258.9,405.516,153l.243-.488,70.224,105.9Z" fill="#2d81ca"/>
        </g>
        <g id="Group_1051" data-name="Group 1051">
          <path id="Path_1263" data-name="Path 1263" d="M474.323,261.747,404.1,155.848l.243-.488,70.224,105.9Z" fill="#2d81ca"/>
        </g>
        <g id="Group_1052" data-name="Group 1052">
          <path id="Path_1264" data-name="Path 1264" d="M472.906,264.6,402.682,158.7l.243-.488,70.224,105.9Z" fill="#2d81ca"/>
        </g>
        <g id="Group_1053" data-name="Group 1053">
          <path id="Path_1265" data-name="Path 1265" d="M471.489,267.444l-70.224-105.9.243-.488,70.224,105.9Z" fill="#2d81ca"/>
        </g>
        <g id="Group_1054" data-name="Group 1054">
          <path id="Path_1266" data-name="Path 1266" d="M470.072,270.293l-70.224-105.9.243-.488,70.224,105.9Z" fill="#2d81ca"/>
        </g>
        <g id="Group_1055" data-name="Group 1055">
          <path id="Path_1267" data-name="Path 1267" d="M468.7,273.06l-70.224-105.9.243-.488,70.224,105.9Z" fill="#2d81ca"/>
        </g>
        <g id="Group_1056" data-name="Group 1056">
          <path id="Path_1268" data-name="Path 1268" d="M467.278,275.908l-70.224-105.9.243-.488,70.224,105.9Z" fill="#2d81ca"/>
        </g>
        <g id="Group_1057" data-name="Group 1057">
          <path id="Path_1269" data-name="Path 1269" d="M465.861,278.757l-70.224-105.9.243-.488,70.224,105.9Z" fill="#2d81ca"/>
        </g>
        <g id="Group_1058" data-name="Group 1058">
          <path id="Path_1270" data-name="Path 1270" d="M464.444,281.605l-70.224-105.9.243-.488,70.224,105.9Z" fill="#2d81ca"/>
        </g>
        <g id="Group_1059" data-name="Group 1059">
          <path id="Path_1271" data-name="Path 1271" d="M463.027,284.453,392.8,178.554l.243-.488,70.224,105.9Z" fill="#2d81ca"/>
        </g>
        <g id="Group_1060" data-name="Group 1060">
          <path id="Path_1272" data-name="Path 1272" d="M461.61,287.3,391.385,181.4l.243-.488,70.224,105.9Z" fill="#2d81ca"/>
        </g>
        <g id="Group_1061" data-name="Group 1061">
          <path id="Path_1273" data-name="Path 1273" d="M460.192,290.151l-70.224-105.9.243-.488,70.224,105.9Z" fill="#2d81ca"/>
        </g>
        <g id="Group_1062" data-name="Group 1062">
          <path id="Path_1274" data-name="Path 1274" d="M458.775,293,388.551,187.1l.243-.488,70.224,105.9Z" fill="#2d81ca"/>
        </g>
        <g id="Group_1063" data-name="Group 1063">
          <path id="Path_1275" data-name="Path 1275" d="M457.363,295.837l-70.224-105.9.243-.488,70.224,105.9Z" fill="#2d81ca"/>
        </g>
        <g id="Group_1064" data-name="Group 1064">
          <path id="Path_1276" data-name="Path 1276" d="M455.946,298.686l-70.224-105.9.243-.488,70.224,105.9Z" fill="#2d81ca"/>
        </g>
        <g id="Group_1065" data-name="Group 1065">
          <path id="Path_1277" data-name="Path 1277" d="M454.529,301.534,384.3,195.635l.243-.488,70.224,105.9Z" fill="#2d81ca"/>
        </g>
        <g id="Group_1066" data-name="Group 1066">
          <path id="Path_1278" data-name="Path 1278" d="M453.112,304.383l-70.224-105.9.243-.488,70.224,105.9Z" fill="#2d81ca"/>
        </g>
        <g id="Group_1067" data-name="Group 1067">
          <path id="Path_1279" data-name="Path 1279" d="M451.695,307.231l-70.224-105.9.243-.488,70.224,105.9Z" fill="#2d81ca"/>
        </g>
        <g id="Group_1068" data-name="Group 1068">
          <path id="Path_1280" data-name="Path 1280" d="M450.278,310.08l-70.224-105.9.243-.488,70.224,105.9Z" fill="#2d81ca"/>
        </g>
        <g id="Group_1069" data-name="Group 1069">
          <path id="Path_1281" data-name="Path 1281" d="M448.861,312.928l-70.224-105.9.243-.488L449.1,312.44Z" fill="#2d81ca"/>
        </g>
        <g id="Group_1070" data-name="Group 1070">
          <path id="Path_1282" data-name="Path 1282" d="M447.443,315.776l-70.224-105.9.243-.488,70.224,105.9Z" fill="#2d81ca"/>
        </g>
        <g id="Group_1071" data-name="Group 1071">
          <path id="Path_1283" data-name="Path 1283" d="M446.067,318.544l-70.224-105.9.243-.488,70.224,105.9Z" fill="#2d81ca"/>
        </g>
        <g id="Group_1072" data-name="Group 1072">
          <path id="Path_1284" data-name="Path 1284" d="M444.65,321.392l-70.224-105.9.243-.488,70.224,105.9Z" fill="#2d81ca"/>
        </g>
        <g id="Group_1073" data-name="Group 1073">
          <path id="Path_1285" data-name="Path 1285" d="M443.232,324.241l-70.224-105.9.243-.488,70.224,105.9Z" fill="#2d81ca"/>
        </g>
        <g id="Group_1074" data-name="Group 1074">
          <path id="Path_1286" data-name="Path 1286" d="M441.815,327.089l-70.224-105.9.243-.488,70.224,105.9Z" fill="#2d81ca"/>
        </g>
        <g id="Group_1075" data-name="Group 1075">
          <path id="Path_1287" data-name="Path 1287" d="M440.4,329.938l-70.224-105.9.243-.488,70.224,105.9Z" fill="#2d81ca"/>
        </g>
        <g id="Group_1076" data-name="Group 1076">
          <path id="Path_1288" data-name="Path 1288" d="M438.981,332.786l-70.224-105.9L369,226.4l70.224,105.9Z" fill="#2d81ca"/>
        </g>
        <g id="Group_1077" data-name="Group 1077">
          <path id="Path_1289" data-name="Path 1289" d="M437.564,335.635l-70.224-105.9.243-.488,70.224,105.9Z" fill="#2d81ca"/>
        </g>
        <g id="Group_1078" data-name="Group 1078">
          <path id="Path_1290" data-name="Path 1290" d="M436.147,338.483l-70.224-105.9.243-.488,70.224,105.9Z" fill="#2d81ca"/>
        </g>
      </g>
    </g>
    <path id="Path_1291" data-name="Path 1291" d="M463.918,236.588c3.121,1.8,3.121,4.724,0,6.527a12.5,12.5,0,0,1-11.3,0c-3.121-1.8-3.121-4.725,0-6.527A12.5,12.5,0,0,1,463.918,236.588Z" fill="#fad105"/>
    <path id="Path_1292" data-name="Path 1292" d="M458.265,244.833a11.934,11.934,0,0,1-5.839-1.394c-1.631-.941-2.529-2.215-2.529-3.587s.9-2.648,2.529-3.589a12.926,12.926,0,0,1,11.679,0c1.631.941,2.529,2.216,2.529,3.589s-.9,2.646-2.529,3.587A11.935,11.935,0,0,1,458.265,244.833Zm0-9.225a11.169,11.169,0,0,0-5.464,1.3,3.081,3.081,0,0,0,0,5.877,12.1,12.1,0,0,0,10.929,0,3.081,3.081,0,0,0,0-5.877A11.173,11.173,0,0,0,458.265,235.608Z" fill="#2d81ca"/>
    <path id="Path_1293" data-name="Path 1293" d="M463.919,230.973c3.121,1.8,3.121,4.724,0,6.526a12.488,12.488,0,0,1-11.3,0c-3.122-1.8-3.122-4.724,0-6.526A12.49,12.49,0,0,1,463.919,230.973Z" fill="#fad105"/>
    <path id="Path_1294" data-name="Path 1294" d="M463.919,234.024c3.121,1.8,3.121,4.724,0,6.526a12.488,12.488,0,0,1-11.3,0c-3.122-1.8-3.122-4.724,0-6.526A12.49,12.49,0,0,1,463.919,234.024Z" fill="#fec"/>
    <path id="Path_1295" data-name="Path 1295" d="M458.266,239.218a11.94,11.94,0,0,1-5.84-1.394,3.81,3.81,0,0,1,0-7.176,12.922,12.922,0,0,1,11.68,0c1.631.941,2.529,2.216,2.529,3.588s-.9,2.647-2.529,3.588A11.938,11.938,0,0,1,458.266,239.218Zm0-9.225a11.187,11.187,0,0,0-5.465,1.3,3.082,3.082,0,0,0,0,5.878,12.1,12.1,0,0,0,10.93,0,3.082,3.082,0,0,0,0-5.878A11.184,11.184,0,0,0,458.266,229.993Z" fill="#2d81ca"/>
    <path id="Path_1296" data-name="Path 1296" d="M469.843,212.646a3.226,3.226,0,0,1-1.093-.191l-5.573-1.99a3.249,3.249,0,0,1-1.964-4.146l1.99-5.572a3.243,3.243,0,0,1,4.146-1.964l5.572,1.99a3.242,3.242,0,0,1,1.964,4.145l-1.991,5.573a3.247,3.247,0,0,1-3.051,2.155Zm-3.587-13.053a2.251,2.251,0,0,0-2.112,1.49l-1.99,5.572a2.249,2.249,0,0,0,1.359,2.868l5.573,1.991a2.244,2.244,0,0,0,2.867-1.359l1.99-5.573a2.242,2.242,0,0,0-1.358-2.867l-5.572-1.99A2.251,2.251,0,0,0,466.256,199.593Z" fill="#fec"/>
    <path id="Path_1297" data-name="Path 1297" d="M461.488,223.511a3.56,3.56,0,0,1-3.161-1.782,3.729,3.729,0,0,1,.339-3.78,1.812,1.812,0,0,0,.269-1.771,1.587,1.587,0,0,0-1.424-.725l-1.15-.056a3.572,3.572,0,0,1-3.063-1.729,3.652,3.652,0,0,1,.171-3.593l.444-.8a1.709,1.709,0,0,0,.16-1.66,1.674,1.674,0,0,0-1.485-.691l-.365-.008a3.58,3.58,0,0,1-3.214-1.764,3.711,3.711,0,0,1,.319-3.786l1.7,1.061a1.794,1.794,0,0,0-.254,1.775,1.655,1.655,0,0,0,1.5.714l.365.008a3.4,3.4,0,0,1,3.028,5.325l-.445.8a1.719,1.719,0,0,0-.168,1.647,1.61,1.61,0,0,0,1.413.7l1.148.057a3.544,3.544,0,0,1,3.1,1.8,3.738,3.738,0,0,1-.352,3.76,1.807,1.807,0,0,0-.263,1.777,1.617,1.617,0,0,0,1.464.721Z" fill="#fec"/>
    <path id="Path_1298" data-name="Path 1298" d="M450.678,226.127a3.317,3.317,0,1,1,3.317-3.317A3.322,3.322,0,0,1,450.678,226.127Zm0-5.635a2.317,2.317,0,1,0,2.317,2.318A2.321,2.321,0,0,0,450.678,220.492Z" fill="#fec"/>
    <g id="Group_1115" data-name="Group 1115">
      <g id="Group_1114" data-name="Group 1114" clip-path="url(#clip-path-9)">
        <g id="Group_1081" data-name="Group 1081">
          <path id="Path_1299" data-name="Path 1299" d="M369.709,116.847,294.72,3.762l.259-.521,74.989,113.085Z" fill="#2d81ca"/>
        </g>
        <g id="Group_1082" data-name="Group 1082">
          <path id="Path_1300" data-name="Path 1300" d="M368.2,119.888,293.206,6.8l.259-.521,74.99,113.085Z" fill="#2d81ca"/>
        </g>
        <g id="Group_1083" data-name="Group 1083">
          <path id="Path_1301" data-name="Path 1301" d="M366.683,122.93,291.693,9.845l.259-.521,74.99,113.085Z" fill="#2d81ca"/>
        </g>
        <g id="Group_1084" data-name="Group 1084">
          <path id="Path_1302" data-name="Path 1302" d="M365.169,125.972,290.18,12.887l.259-.521,74.989,113.085Z" fill="#2d81ca"/>
        </g>
        <g id="Group_1085" data-name="Group 1085">
          <path id="Path_1303" data-name="Path 1303" d="M363.656,129.014,288.666,15.929l.26-.522,74.989,113.085Z" fill="#2d81ca"/>
        </g>
        <g id="Group_1086" data-name="Group 1086">
          <path id="Path_1304" data-name="Path 1304" d="M362.143,132.055,287.153,18.97l.259-.522L362.4,131.534Z" fill="#2d81ca"/>
        </g>
        <g id="Group_1087" data-name="Group 1087">
          <path id="Path_1305" data-name="Path 1305" d="M360.629,135.1,285.64,22.012l.259-.521,74.99,113.085Z" fill="#2d81ca"/>
        </g>
        <g id="Group_1088" data-name="Group 1088">
          <path id="Path_1306" data-name="Path 1306" d="M359.116,138.139,284.127,25.054l.259-.521,74.989,113.085Z" fill="#2d81ca"/>
        </g>
        <g id="Group_1089" data-name="Group 1089">
          <path id="Path_1307" data-name="Path 1307" d="M357.6,141.181,282.613,28.1l.26-.521,74.989,113.085Z" fill="#2d81ca"/>
        </g>
        <g id="Group_1090" data-name="Group 1090">
          <path id="Path_1308" data-name="Path 1308" d="M356.133,144.136,281.143,31.051l.259-.521,74.99,113.085Z" fill="#2d81ca"/>
        </g>
        <g id="Group_1091" data-name="Group 1091">
          <path id="Path_1309" data-name="Path 1309" d="M354.619,147.177,279.63,34.092l.259-.521,74.99,113.085Z" fill="#2d81ca"/>
        </g>
        <g id="Group_1092" data-name="Group 1092">
          <path id="Path_1310" data-name="Path 1310" d="M353.106,150.219,278.117,37.134l.259-.521L353.365,149.7Z" fill="#2d81ca"/>
        </g>
        <g id="Group_1093" data-name="Group 1093">
          <path id="Path_1311" data-name="Path 1311" d="M351.593,153.261,276.6,40.176l.259-.521,74.99,113.085Z" fill="#2d81ca"/>
        </g>
        <g id="Group_1094" data-name="Group 1094">
          <path id="Path_1312" data-name="Path 1312" d="M350.079,156.3,275.09,43.217l.259-.521,74.99,113.085Z" fill="#2d81ca"/>
        </g>
        <g id="Group_1095" data-name="Group 1095">
          <path id="Path_1313" data-name="Path 1313" d="M348.566,159.344,273.577,46.259l.259-.521,74.989,113.085Z" fill="#2d81ca"/>
        </g>
        <g id="Group_1096" data-name="Group 1096">
          <path id="Path_1314" data-name="Path 1314" d="M347.053,162.386,272.063,49.3l.26-.521,74.989,113.085Z" fill="#2d81ca"/>
        </g>
        <g id="Group_1097" data-name="Group 1097">
          <path id="Path_1315" data-name="Path 1315" d="M345.54,165.428,270.55,52.343l.259-.521L345.8,164.906Z" fill="#2d81ca"/>
        </g>
        <g id="Group_1098" data-name="Group 1098">
          <path id="Path_1316" data-name="Path 1316" d="M344.032,168.459,269.042,55.374l.259-.521,74.99,113.085Z" fill="#2d81ca"/>
        </g>
        <g id="Group_1099" data-name="Group 1099">
          <path id="Path_1317" data-name="Path 1317" d="M342.518,171.5,267.529,58.415l.259-.521,74.99,113.085Z" fill="#2d81ca"/>
        </g>
        <g id="Group_1100" data-name="Group 1100">
          <path id="Path_1318" data-name="Path 1318" d="M341.005,174.542,266.016,61.457l.259-.521,74.989,113.085Z" fill="#2d81ca"/>
        </g>
        <g id="Group_1101" data-name="Group 1101">
          <path id="Path_1319" data-name="Path 1319" d="M339.492,177.584,264.5,64.5l.259-.521,74.99,113.085Z" fill="#2d81ca"/>
        </g>
        <g id="Group_1102" data-name="Group 1102">
          <path id="Path_1320" data-name="Path 1320" d="M337.978,180.626,262.989,67.541l.259-.521L338.238,180.1Z" fill="#2d81ca"/>
        </g>
        <g id="Group_1103" data-name="Group 1103">
          <path id="Path_1321" data-name="Path 1321" d="M336.465,183.668,261.476,70.582l.259-.521,74.989,113.085Z" fill="#2d81ca"/>
        </g>
        <g id="Group_1104" data-name="Group 1104">
          <path id="Path_1322" data-name="Path 1322" d="M334.952,186.709,259.962,73.624l.259-.521,74.989,113.085Z" fill="#2d81ca"/>
        </g>
        <g id="Group_1105" data-name="Group 1105">
          <path id="Path_1323" data-name="Path 1323" d="M333.439,189.751,258.449,76.666l.259-.521L333.7,189.23Z" fill="#2d81ca"/>
        </g>
        <g id="Group_1106" data-name="Group 1106">
          <path id="Path_1324" data-name="Path 1324" d="M331.969,192.706,256.979,79.621l.259-.521,74.989,113.085Z" fill="#2d81ca"/>
        </g>
        <g id="Group_1107" data-name="Group 1107">
          <path id="Path_1325" data-name="Path 1325" d="M330.455,195.748,255.466,82.662l.259-.521,74.989,113.085Z" fill="#2d81ca"/>
        </g>
        <g id="Group_1108" data-name="Group 1108">
          <path id="Path_1326" data-name="Path 1326" d="M328.942,198.789,253.952,85.7l.26-.521L329.2,198.268Z" fill="#2d81ca"/>
        </g>
        <g id="Group_1109" data-name="Group 1109">
          <path id="Path_1327" data-name="Path 1327" d="M327.429,201.831,252.439,88.746l.259-.521L327.688,201.31Z" fill="#2d81ca"/>
        </g>
        <g id="Group_1110" data-name="Group 1110">
          <path id="Path_1328" data-name="Path 1328" d="M325.915,204.873,250.926,91.788l.259-.521,74.989,113.085Z" fill="#2d81ca"/>
        </g>
        <g id="Group_1111" data-name="Group 1111">
          <path id="Path_1329" data-name="Path 1329" d="M324.4,207.915,249.413,94.83l.259-.521,74.989,113.085Z" fill="#2d81ca"/>
        </g>
        <g id="Group_1112" data-name="Group 1112">
          <path id="Path_1330" data-name="Path 1330" d="M322.889,210.956,247.9,97.871l.259-.521,74.99,113.085Z" fill="#2d81ca"/>
        </g>
        <g id="Group_1113" data-name="Group 1113">
          <path id="Path_1331" data-name="Path 1331" d="M321.375,214,246.386,100.913l.259-.521,74.99,113.085Z" fill="#2d81ca"/>
        </g>
      </g>
    </g>
    <path id="Path_1332" data-name="Path 1332" d="M330.889,123.127,323.4,118.8c-.9-.522-.791-1.435.254-2.039l6.979-4.03a3.926,3.926,0,0,1,3.532-.146l7.487,4.323c.9.522.792,1.435-.254,2.039l-6.979,4.029A3.926,3.926,0,0,1,330.889,123.127Z" fill="#fad105"/>
    <path id="Path_1333" data-name="Path 1333" d="M332.428,123.881a3.537,3.537,0,0,1-1.739-.408l-7.487-4.322a1.435,1.435,0,0,1-.812-1.232,1.838,1.838,0,0,1,1.066-1.5l6.98-4.03a4.307,4.307,0,0,1,3.931-.146l7.488,4.322a1.435,1.435,0,0,1,.811,1.232,1.838,1.838,0,0,1-1.066,1.5l-6.979,4.03A4.485,4.485,0,0,1,332.428,123.881Zm.209-11.244a3.714,3.714,0,0,0-1.8.445l-6.979,4.03c-.417.24-.666.542-.666.807a.694.694,0,0,0,.411.538l7.488,4.323a3.545,3.545,0,0,0,3.13-.146l6.98-4.03c.416-.241.665-.542.665-.807a.7.7,0,0,0-.411-.539l-7.487-4.322A2.721,2.721,0,0,0,332.637,112.637Z" fill="#2d81ca"/>
    <path id="Path_1334" data-name="Path 1334" d="M330.889,118.255l-7.487-4.323c-.9-.523-.791-1.435.254-2.039l6.979-4.03a3.926,3.926,0,0,1,3.532-.146l7.487,4.322c.9.523.792,1.436-.254,2.04l-6.979,4.029A3.926,3.926,0,0,1,330.889,118.255Z" fill="#fad105"/>
    <path id="Path_1335" data-name="Path 1335" d="M330.889,120.578l-7.487-4.323c-.9-.523-.791-1.436.254-2.039l6.98-4.03a3.924,3.924,0,0,1,3.531-.146l7.487,4.322c.9.523.792,1.436-.254,2.039l-6.979,4.03A3.926,3.926,0,0,1,330.889,120.578Z" fill="#fec"/>
    <path id="Path_1336" data-name="Path 1336" d="M332.428,119.009a3.537,3.537,0,0,1-1.739-.408l-7.487-4.322a1.435,1.435,0,0,1-.812-1.232,1.84,1.84,0,0,1,1.066-1.5l6.98-4.03a4.313,4.313,0,0,1,3.931-.146l7.488,4.323a1.435,1.435,0,0,1,.811,1.232,1.838,1.838,0,0,1-1.066,1.5l-6.979,4.03A4.485,4.485,0,0,1,332.428,119.009Zm.209-11.244a3.714,3.714,0,0,0-1.8.445l-6.979,4.03c-.417.24-.666.542-.666.807a.694.694,0,0,0,.411.538l7.488,4.323a3.542,3.542,0,0,0,3.13-.146l6.98-4.03c.416-.241.665-.542.665-.807a.7.7,0,0,0-.411-.539l-7.487-4.322A2.721,2.721,0,0,0,332.637,107.765Z" fill="#2d81ca"/>
    <path id="Path_1337" data-name="Path 1337" d="M324.8,95.86a2.738,2.738,0,0,1-1.943-.8l-1.77-1.77a2.751,2.751,0,0,1,0-3.887l1.77-1.77a2.752,2.752,0,0,1,3.886,0l1.771,1.77a2.753,2.753,0,0,1,0,3.887l-1.771,1.77A2.737,2.737,0,0,1,324.8,95.86Zm0-8.035a1.742,1.742,0,0,0-1.237.511l-1.77,1.77a1.75,1.75,0,0,0,0,2.473l1.77,1.77a1.75,1.75,0,0,0,2.472,0l1.77-1.77a1.75,1.75,0,0,0,0-2.473l-1.77-1.77A1.741,1.741,0,0,0,324.806,87.825Z" fill="#fec"/>
    <path id="Path_1338" data-name="Path 1338" d="M340.745,91.387a3.793,3.793,0,0,1-1.283-.224l-6.213-2.218a3.81,3.81,0,0,1-2.306-4.868l2.219-6.213a3.808,3.808,0,0,1,4.867-2.306l6.213,2.218a3.813,3.813,0,0,1,2.306,4.869l-2.219,6.212a3.812,3.812,0,0,1-3.584,2.53Zm-4-14.552a2.316,2.316,0,0,0-2.173,1.533l-2.219,6.214a2.309,2.309,0,0,0,1.4,2.95l6.213,2.219a2.31,2.31,0,0,0,2.951-1.4l2.219-6.212a2.314,2.314,0,0,0-1.4-2.951l-6.213-2.218A2.3,2.3,0,0,0,336.747,76.835Z" fill="#fec"/>
    <path id="Path_1339" data-name="Path 1339" d="M332.57,100.916a2.451,2.451,0,1,1,2.452-2.452A2.455,2.455,0,0,1,332.57,100.916Zm0-3.9a1.452,1.452,0,1,0,1.452,1.451A1.453,1.453,0,0,0,332.57,97.013Z" fill="#fec"/>
    <path id="Path_1340" data-name="Path 1340" d="M335.471,265.6V244.387h-7.918V266.02h.018a2.1,2.1,0,0,0,1.144,1.407,6.2,6.2,0,0,0,5.611,0A1.859,1.859,0,0,0,335.471,265.6Z" fill="#fad105"/>
    <path id="Path_1341" data-name="Path 1341" d="M328.863,249.372V267.33l3.375.768V249.933A6.12,6.12,0,0,1,328.863,249.372Z" fill="#fec"/>
    <path id="Path_1342" data-name="Path 1342" d="M331.521,268.479a6.1,6.1,0,0,1-2.994-.727,2.684,2.684,0,0,1-1.246-1.357H327.2l-.017-.375V244.012h8.668v21.555a2.228,2.228,0,0,1-1.332,2.185A6.1,6.1,0,0,1,331.521,268.479Zm-3.593-2.578.012.059a1.768,1.768,0,0,0,.962,1.142,5.79,5.79,0,0,0,5.237,0c.694-.4,1.045-.929.962-1.448l-.005-.059V244.762h-7.168Z" fill="#2d81ca"/>
    <path id="Path_1343" data-name="Path 1343" d="M334.326,242.767c1.55.9,1.55,2.345,0,3.24a6.2,6.2,0,0,1-5.611,0c-1.549-.9-1.549-2.345,0-3.24A6.2,6.2,0,0,1,334.326,242.767Z" fill="#fad105"/>
    <path id="Path_1344" data-name="Path 1344" d="M335.1,245.334a2.743,2.743,0,0,0-.77-.646,6.2,6.2,0,0,0-5.611,0,2.729,2.729,0,0,0-.787.664v1.91a2.716,2.716,0,0,0,.787.665,6.2,6.2,0,0,0,5.611,0,2.743,2.743,0,0,0,.77-.646Z" fill="#fec"/>
    <path id="Path_1345" data-name="Path 1345" d="M331.521,247.058a6.106,6.106,0,0,1-2.994-.726,2.076,2.076,0,0,1,0-3.889,6.532,6.532,0,0,1,5.987,0,2.076,2.076,0,0,1,0,3.889A6.1,6.1,0,0,1,331.521,247.058Zm0-4.591a5.355,5.355,0,0,0-2.619.625,1.348,1.348,0,0,0,0,2.59,5.794,5.794,0,0,0,5.237,0,1.348,1.348,0,0,0,0-2.59A5.352,5.352,0,0,0,331.521,242.467Z" fill="#2d81ca"/>
    <path id="Path_1346" data-name="Path 1346" d="M324.482,273.3l.009-10.619h-7.918l-.008,11.045h.017a2.109,2.109,0,0,0,1.145,1.407,6.2,6.2,0,0,0,5.611,0A1.86,1.86,0,0,0,324.482,273.3Z" fill="#fad105"/>
    <path id="Path_1347" data-name="Path 1347" d="M317.884,267.667l-.009,7.37,3.375.768.009-7.577A6.119,6.119,0,0,1,317.884,267.667Z" fill="#fec"/>
    <path id="Path_1348" data-name="Path 1348" d="M320.532,276.185a6.089,6.089,0,0,1-2.993-.727,2.68,2.68,0,0,1-1.246-1.357h-.086l-.018-.375.009-11.419h8.668l-.009,10.966a2.225,2.225,0,0,1-1.332,2.185A6.089,6.089,0,0,1,320.532,276.185Zm-3.593-2.577.013.059a1.771,1.771,0,0,0,.962,1.142,5.788,5.788,0,0,0,5.236,0c.7-.4,1.045-.929.962-1.448l-.005-.06.009-10.244h-7.168Z" fill="#2d81ca"/>
    <path id="Path_1349" data-name="Path 1349" d="M323.347,261.062c1.549.894,1.549,2.345,0,3.239a6.2,6.2,0,0,1-5.611,0c-1.55-.894-1.55-2.345,0-3.239A6.2,6.2,0,0,1,323.347,261.062Z" fill="#fad105"/>
    <path id="Path_1350" data-name="Path 1350" d="M324.116,263.628a2.761,2.761,0,0,0-.77-.646,6.2,6.2,0,0,0-5.611,0,2.745,2.745,0,0,0-.787.665v1.91a2.745,2.745,0,0,0,.787.665,6.2,6.2,0,0,0,5.611,0,2.762,2.762,0,0,0,.77-.647Z" fill="#fec"/>
    <path id="Path_1351" data-name="Path 1351" d="M320.541,265.353a6.1,6.1,0,0,1-2.993-.727,2.075,2.075,0,0,1,0-3.889,6.529,6.529,0,0,1,5.986,0,2.075,2.075,0,0,1,0,3.889A6.1,6.1,0,0,1,320.541,265.353Zm0-4.592a5.363,5.363,0,0,0-2.618.625,1.348,1.348,0,0,0,0,2.591,5.8,5.8,0,0,0,5.236,0,1.348,1.348,0,0,0,0-2.591A5.363,5.363,0,0,0,320.541,260.761Z" fill="#2d81ca"/>
    <path id="Path_1352" data-name="Path 1352" d="M337.555,239.263a1.719,1.719,0,0,1-.108-1.752,1.8,1.8,0,0,1,1.62-.857.846.846,0,0,0,.759-.34.74.74,0,0,0-.08-.736l-.275-.475a1.727,1.727,0,0,1-.1-1.7,1.768,1.768,0,0,1,1.5-.877l.435-.029a.793.793,0,0,0,.687-.353.777.777,0,0,0-.108-.752l-.091-.149a1.73,1.73,0,0,1-.13-1.768,1.8,1.8,0,0,1,1.618-.866l.016,1a.835.835,0,0,0-.756.346.768.768,0,0,0,.1.763l.09.148a1.644,1.644,0,0,1-1.363,2.629l-.434.029a.8.8,0,0,0-.685.349.748.748,0,0,0,.086.724l.275.475a1.713,1.713,0,0,1,.085,1.731,1.8,1.8,0,0,1-1.615.847.844.844,0,0,0-.761.343.76.76,0,0,0,.092.75Z" fill="#fec"/>
    <path id="Path_1353" data-name="Path 1353" d="M343.287,248.08a3.318,3.318,0,1,1,3.318-3.317A3.321,3.321,0,0,1,343.287,248.08Zm0-5.636a2.318,2.318,0,1,0,2.318,2.319A2.321,2.321,0,0,0,343.287,242.444Z" fill="#fec"/>
    <path id="Path_1354" data-name="Path 1354" d="M350.132,251.058a2.393,2.393,0,1,1,2.392-2.393A2.4,2.4,0,0,1,350.132,251.058Zm0-3.785a1.393,1.393,0,1,0,1.392,1.392A1.394,1.394,0,0,0,350.132,247.273Z" fill="#fec"/>
    <path id="Path_1355" data-name="Path 1355" d="M450.067,88.965l.01-12.28h-9.155l-.011,12.772h.021a2.437,2.437,0,0,0,1.323,1.627,7.175,7.175,0,0,0,6.489,0A2.151,2.151,0,0,0,450.067,88.965Z" fill="#fad105"/>
    <path id="Path_1356" data-name="Path 1356" d="M442.437,82.449l-.01,8.523,3.9.888.011-8.762A7.075,7.075,0,0,1,442.437,82.449Z" fill="#fec"/>
    <path id="Path_1357" data-name="Path 1357" d="M445.5,92.3a7.043,7.043,0,0,1-3.461-.841A3.1,3.1,0,0,1,440.6,89.89h-.1l-.02-.434.01-13.205h10.023l-.01,12.681a2.573,2.573,0,0,1-1.54,2.527A7.042,7.042,0,0,1,445.5,92.3Zm-4.154-2.981.015.068a2.041,2.041,0,0,0,1.112,1.321,6.691,6.691,0,0,0,6.055,0c.8-.463,1.208-1.074,1.112-1.674l-.005-.069.01-11.847h-8.289Z" fill="#2d81ca"/>
    <ellipse id="Ellipse_40" data-name="Ellipse 40" cx="4.588" cy="2.649" rx="4.588" ry="2.649" transform="translate(440.922 74.036)" fill="#fad105"/>
    <path id="Path_1358" data-name="Path 1358" d="M449.644,77.779a3.173,3.173,0,0,0-.891-.747,7.173,7.173,0,0,0-6.488,0,3.161,3.161,0,0,0-.91.769v2.208a3.146,3.146,0,0,0,.91.769,7.166,7.166,0,0,0,6.488,0,3.173,3.173,0,0,0,.891-.747Z" fill="#fec"/>
    <path id="Path_1359" data-name="Path 1359" d="M445.51,79.773a7.057,7.057,0,0,1-3.462-.84,2.4,2.4,0,0,1,0-4.5,7.555,7.555,0,0,1,6.923,0,2.4,2.4,0,0,1,0,4.5A7.051,7.051,0,0,1,445.51,79.773Zm0-5.309a6.191,6.191,0,0,0-3.028.723,1.558,1.558,0,0,0,0,3,6.7,6.7,0,0,0,6.055,0,1.558,1.558,0,0,0,0-3A6.187,6.187,0,0,0,445.51,74.464Z" fill="#2d81ca"/>
    <path id="Path_1360" data-name="Path 1360" d="M449.877,67.457a1.913,1.913,0,0,1-.122-1.947,2.005,2.005,0,0,1,1.8-.95,1.052,1.052,0,0,0,.945-.433.927.927,0,0,0-.092-.929l-.319-.548a1.922,1.922,0,0,1-.118-1.886,1.964,1.964,0,0,1,1.671-.973l.5-.033a.993.993,0,0,0,.86-.452.974.974,0,0,0-.128-.946l-.106-.171a1.925,1.925,0,0,1-.147-1.965,2,2,0,0,1,1.8-.962l.015,1a1.038,1.038,0,0,0-.942.442.96.96,0,0,0,.121.959l.1.171a1.825,1.825,0,0,1-1.515,2.922l-.5.033a1,1,0,0,0-.856.444.942.942,0,0,0,.1.915l.319.548a1.9,1.9,0,0,1,.1,1.925,2.012,2.012,0,0,1-1.8.939,1.046,1.046,0,0,0-.946.437.936.936,0,0,0,.106.946Z" fill="#fec"/>
    <path id="Path_1361" data-name="Path 1361" d="M456.439,77.616a3.758,3.758,0,1,1,3.759-3.758A3.762,3.762,0,0,1,456.439,77.616Zm0-6.516a2.758,2.758,0,1,0,2.759,2.758A2.761,2.761,0,0,0,456.439,71.1Z" fill="#fec"/>
    <path id="Path_1362" data-name="Path 1362" d="M384.84,291.334a3.506,3.506,0,1,1,3.505-3.506A3.509,3.509,0,0,1,384.84,291.334Zm0-6.011a2.506,2.506,0,1,0,2.505,2.505A2.508,2.508,0,0,0,384.84,285.323Z" fill="#fec"/>
    <path id="Path_1363" data-name="Path 1363" d="M381.109,304.326v-11.4a.412.412,0,0,0-.412-.413H370.475a.3.3,0,0,0-.3.295l0,11.521v.047a.617.617,0,0,0,.343.485l4.205,2.427a2.2,2.2,0,0,0,1.983-.082l3.92-2.263C380.933,304.764,381.109,304.59,381.109,304.326Z" fill="#fad105"/>
    <path id="Path_1364" data-name="Path 1364" d="M374.725,299.179l-3.536-2.041v8.31l4.454,2.188v-8.264A1.789,1.789,0,0,1,374.725,299.179Z" fill="#fec"/>
    <path id="Path_1365" data-name="Path 1365" d="M375.588,307.769a2.036,2.036,0,0,1-1.006-.237l-4.2-2.427a.888.888,0,0,1-.474-.654l-.012-.078,0-11.567a.581.581,0,0,1,.58-.581H380.7a.7.7,0,0,1,.7.7v11.4a1.023,1.023,0,0,1-.624.861l-3.92,2.263A2.581,2.581,0,0,1,375.588,307.769ZM370.475,292.8l-.013,11.53c.054.2.056.2.2.285l4.205,2.427a1.925,1.925,0,0,0,1.7-.082l3.919-2.263c.313-.181.339-.284.339-.367v-11.4a.127.127,0,0,0-.127-.127Z" fill="#2d81ca"/>
    <path id="Path_1366" data-name="Path 1366" d="M374.725,295.47l-4.205-2.428c-.508-.294-.445-.806.142-1.145l3.92-2.263a2.207,2.207,0,0,1,1.984-.083l4.2,2.428c.508.294.444.806-.143,1.145l-3.92,2.263A2.205,2.205,0,0,1,374.725,295.47Z" fill="#fad105"/>
    <path id="Path_1367" data-name="Path 1367" d="M380.828,294.177c-.02-.013-.035-.029-.057-.042l-4.2-2.427a2.2,2.2,0,0,0-1.984.082l-3.92,2.263a1.523,1.523,0,0,0-.2.139v.964c.02.014.036.029.058.042l4.205,2.428a2.205,2.205,0,0,0,1.983-.083l3.92-2.263a1.3,1.3,0,0,0,.2-.139Z" fill="#fec"/>
    <path id="Path_1368" data-name="Path 1368" d="M375.588,295.953a2.036,2.036,0,0,1-1.006-.237l-4.2-2.427a.866.866,0,0,1-.486-.745,1.093,1.093,0,0,1,.629-.9l3.919-2.262a2.484,2.484,0,0,1,2.269-.083l4.2,2.428a.865.865,0,0,1,.486.744,1.09,1.09,0,0,1-.628.895l-3.92,2.263A2.581,2.581,0,0,1,375.588,295.953Zm.119-6.315a2.019,2.019,0,0,0-.982.243l-3.92,2.263c-.253.146-.343.3-.343.4,0,.117.126.208.2.251l4.205,2.427a1.925,1.925,0,0,0,1.7-.082l3.919-2.263c.253-.146.343-.3.343-.4,0-.116-.125-.206-.2-.25l-4.2-2.428A1.466,1.466,0,0,0,375.707,289.638Z" fill="#2d81ca"/>
    <path id="Path_1369" data-name="Path 1369" d="M343.07,168.719a2.639,2.639,0,1,1,2.64-2.639A2.641,2.641,0,0,1,343.07,168.719Zm0-4.278a1.639,1.639,0,1,0,1.64,1.639A1.64,1.64,0,0,0,343.07,164.441Z" fill="#fec"/>
    <path id="Path_1370" data-name="Path 1370" d="M354.088,186.514V173.85a.458.458,0,0,0-.458-.458H342.278a.328.328,0,0,0-.328.327l0,12.8v.053a.688.688,0,0,0,.381.538l4.67,2.7a2.45,2.45,0,0,0,2.2-.091l4.354-2.514C353.893,187,354.088,186.807,354.088,186.514Z" fill="#fad105"/>
    <path id="Path_1371" data-name="Path 1371" d="M347,180.8l-3.926-2.267v9.229l4.946,2.43v-9.177A2.007,2.007,0,0,1,347,180.8Z" fill="#fec"/>
    <path id="Path_1372" data-name="Path 1372" d="M347.956,190.338a2.266,2.266,0,0,1-1.117-.263l-4.67-2.7a.985.985,0,0,1-.527-.725l-.013-.087,0-12.847a.645.645,0,0,1,.645-.645H353.63a.776.776,0,0,1,.775.775v12.664a1.132,1.132,0,0,1-.693.956l-4.353,2.514A2.875,2.875,0,0,1,347.956,190.338Zm-5.678-16.629-.015,12.806c.06.217.062.222.223.315l4.67,2.7a2.134,2.134,0,0,0,1.886-.091l4.353-2.513c.347-.2.376-.316.376-.408V173.85a.141.141,0,0,0-.141-.141Z" fill="#2d81ca"/>
    <path id="Path_1373" data-name="Path 1373" d="M347,176.678l-4.67-2.7c-.564-.326-.493-.895.159-1.272l4.353-2.513a2.45,2.45,0,0,1,2.2-.092l4.67,2.7c.564.326.494.9-.158,1.271l-4.354,2.514A2.45,2.45,0,0,1,347,176.678Z" fill="#fad105"/>
    <path id="Path_1374" data-name="Path 1374" d="M353.776,175.243c-.022-.015-.039-.032-.064-.047l-4.67-2.7a2.45,2.45,0,0,0-2.2.091l-4.353,2.514a1.586,1.586,0,0,0-.223.155v1.07c.023.015.04.032.064.047l4.67,2.7a2.447,2.447,0,0,0,2.2-.092l4.354-2.513a1.548,1.548,0,0,0,.222-.155Z" fill="#fec"/>
    <path id="Path_1375" data-name="Path 1375" d="M347.956,177.215a2.266,2.266,0,0,1-1.117-.263l-4.67-2.7a.959.959,0,0,1-.54-.827,1.211,1.211,0,0,1,.7-.993l4.353-2.513a2.756,2.756,0,0,1,2.52-.092l4.67,2.7a.961.961,0,0,1,.54.827,1.211,1.211,0,0,1-.7.994l-4.353,2.513A2.875,2.875,0,0,1,347.956,177.215Zm.132-7.013a2.258,2.258,0,0,0-1.091.269l-4.353,2.514c-.281.162-.381.335-.381.444,0,.13.14.231.223.279l4.67,2.7a2.141,2.141,0,0,0,1.886-.092l4.353-2.513c.281-.162.381-.336.381-.445,0-.13-.139-.23-.223-.278l-4.67-2.7A1.627,1.627,0,0,0,348.088,170.2Z" fill="#2d81ca"/>
    <path id="Path_1376" data-name="Path 1376" d="M476.63,123.615a2.9,2.9,0,0,1-2.531-1.479l-2.523-4.506a2.894,2.894,0,0,1,1.112-3.939l4.505-2.522a2.9,2.9,0,0,1,3.94,1.111l2.522,4.506a2.894,2.894,0,0,1-1.112,3.939l-4.505,2.522A2.868,2.868,0,0,1,476.63,123.615ZM478.6,111.8a1.875,1.875,0,0,0-.921.241l-4.505,2.522a1.894,1.894,0,0,0-.728,2.578l2.523,4.506a1.9,1.9,0,0,0,2.578.726l4.505-2.522a1.895,1.895,0,0,0,.727-2.578l-2.522-4.505A1.9,1.9,0,0,0,478.6,111.8Z" fill="#fec"/>
    <path id="Path_1377" data-name="Path 1377" d="M486.685,128.7a1.722,1.722,0,0,1-.107-1.751,1.8,1.8,0,0,1,1.62-.857.847.847,0,0,0,.76-.341.738.738,0,0,0-.08-.735l-.276-.475a1.723,1.723,0,0,1-.1-1.695,1.765,1.765,0,0,1,1.5-.878l.434-.028a.794.794,0,0,0,.687-.354.777.777,0,0,0-.108-.752l-.092-.149a1.731,1.731,0,0,1-.129-1.766,1.8,1.8,0,0,1,1.618-.868l.018,1a.836.836,0,0,0-.758.347.77.77,0,0,0,.1.762l.092.149a1.645,1.645,0,0,1-1.364,2.629l-.434.028a.8.8,0,0,0-.685.349.746.746,0,0,0,.087.724l.275.475a1.708,1.708,0,0,1,.084,1.73,1.8,1.8,0,0,1-1.615.848.839.839,0,0,0-.76.344.757.757,0,0,0,.091.75Z" fill="#fec"/>
    <path id="Path_1378" data-name="Path 1378" d="M489.653,109.688a2.393,2.393,0,1,1,2.393-2.393A2.4,2.4,0,0,1,489.653,109.688Zm0-3.786a1.393,1.393,0,1,0,1.393,1.393A1.395,1.395,0,0,0,489.653,105.9Z" fill="#fec"/>
    <path id="Path_1379" data-name="Path 1379" d="M486.847,149.564V135.881a.5.5,0,0,0-.495-.495H474.087a.353.353,0,0,0-.354.354l0,13.824v.057a.737.737,0,0,0,.411.581l5.046,2.913a2.645,2.645,0,0,0,2.38-.1l4.7-2.715C486.636,150.089,486.847,149.881,486.847,149.564Z" fill="#fad105"/>
    <path id="Path_1380" data-name="Path 1380" d="M479.186,143.388l-4.242-2.449v9.971l5.344,2.625V143.62A2.157,2.157,0,0,1,479.186,143.388Z" fill="#fec"/>
    <path id="Path_1381" data-name="Path 1381" d="M480.222,153.7a2.45,2.45,0,0,1-1.207-.284l-5.046-2.912a1.065,1.065,0,0,1-.569-.784l-.014-.094,0-13.881a.7.7,0,0,1,.7-.7h12.265a.837.837,0,0,1,.837.837v13.683a1.224,1.224,0,0,1-.748,1.033l-4.7,2.716A3.1,3.1,0,0,1,480.222,153.7Zm-6.135-17.966-.016,13.835c.065.235.066.241.241.341l5.045,2.913a2.311,2.311,0,0,0,2.038-.1L486.1,150c.375-.216.407-.341.407-.44V135.881a.153.153,0,0,0-.153-.152Z" fill="#2d81ca"/>
    <path id="Path_1382" data-name="Path 1382" d="M479.186,138.937l-5.046-2.913c-.61-.352-.533-.968.171-1.374l4.7-2.716a2.645,2.645,0,0,1,2.38-.1l5.046,2.913c.61.353.533.968-.171,1.374l-4.7,2.716A2.645,2.645,0,0,1,479.186,138.937Z" fill="#fad105"/>
    <path id="Path_1383" data-name="Path 1383" d="M486.51,137.386c-.024-.016-.043-.035-.069-.05l-5.046-2.913a2.645,2.645,0,0,0-2.38.1l-4.7,2.716a1.683,1.683,0,0,0-.24.167v1.156c.024.017.043.035.069.051l5.046,2.913a2.645,2.645,0,0,0,2.38-.1l4.7-2.715a1.772,1.772,0,0,0,.24-.167Z" fill="#fec"/>
    <path id="Path_1384" data-name="Path 1384" d="M480.222,139.517a2.45,2.45,0,0,1-1.207-.284l-5.046-2.913a1.036,1.036,0,0,1-.583-.893,1.307,1.307,0,0,1,.754-1.074l4.7-2.715a2.975,2.975,0,0,1,2.722-.1l5.046,2.913a1.038,1.038,0,0,1,.583.893,1.309,1.309,0,0,1-.754,1.074l-4.7,2.716A3.11,3.11,0,0,1,480.222,139.517Zm.142-7.578a2.428,2.428,0,0,0-1.178.292l-4.7,2.715c-.3.175-.412.363-.412.481,0,.14.151.248.241.3l5.045,2.913a2.314,2.314,0,0,0,2.038-.1l4.7-2.716c.3-.175.412-.363.412-.481,0-.14-.151-.248-.241-.3l-5.045-2.913A1.76,1.76,0,0,0,480.364,131.939Z" fill="#2d81ca"/>
    <path id="Path_1385" data-name="Path 1385" d="M492.7,157.255v-9.947a.36.36,0,0,0-.36-.359h-8.916a.257.257,0,0,0-.257.257l0,10.049v.041a.538.538,0,0,0,.3.423l3.668,2.118a1.925,1.925,0,0,0,1.73-.072l3.42-1.974C492.546,157.637,492.7,157.485,492.7,157.255Z" fill="#fad105"/>
    <path id="Path_1386" data-name="Path 1386" d="M487.13,152.766l-3.084-1.781v7.249l3.885,1.908v-7.208A1.562,1.562,0,0,1,487.13,152.766Z" fill="#fec"/>
    <path id="Path_1387" data-name="Path 1387" d="M487.883,160.258a1.782,1.782,0,0,1-.877-.206l-3.668-2.117a.778.778,0,0,1-.414-.57l-.01-.069,0-10.09a.507.507,0,0,1,.506-.506h8.916a.609.609,0,0,1,.609.608v9.947a.89.89,0,0,1-.544.751l-3.419,1.974A2.255,2.255,0,0,1,487.883,160.258Zm-4.46-13.06-.011,10.057c.047.171.048.175.175.248l3.668,2.118a1.679,1.679,0,0,0,1.481-.072l3.419-1.974c.273-.157.3-.248.3-.32v-9.947a.11.11,0,0,0-.111-.11Z" fill="#2d81ca"/>
    <path id="Path_1388" data-name="Path 1388" d="M487.13,149.53l-3.668-2.118c-.443-.256-.387-.7.125-1l3.419-1.974a1.925,1.925,0,0,1,1.73-.071l3.668,2.117c.443.256.388.7-.124,1l-3.42,1.974A1.922,1.922,0,0,1,487.13,149.53Z" fill="#fad105"/>
    <path id="Path_1389" data-name="Path 1389" d="M492.454,148.4c-.017-.012-.031-.026-.05-.037l-3.668-2.118a1.922,1.922,0,0,0-1.73.072l-3.419,1.974a1.2,1.2,0,0,0-.175.122v.84c.018.012.031.026.05.037l3.668,2.118a1.922,1.922,0,0,0,1.73-.072l3.42-1.974a1.186,1.186,0,0,0,.174-.122Z" fill="#fec"/>
    <path id="Path_1390" data-name="Path 1390" d="M487.883,149.951a1.782,1.782,0,0,1-.877-.206l-3.668-2.117a.756.756,0,0,1-.424-.65.95.95,0,0,1,.548-.78l3.419-1.974a2.166,2.166,0,0,1,1.979-.072l3.668,2.118a.754.754,0,0,1,.424.649.952.952,0,0,1-.548.781l-3.419,1.974A2.265,2.265,0,0,1,487.883,149.951Zm.1-5.508a1.77,1.77,0,0,0-.857.212l-3.419,1.974c-.22.127-.3.264-.3.349,0,.1.109.181.175.219l3.668,2.117a1.682,1.682,0,0,0,1.481-.071l3.419-1.974c.221-.128.3-.264.3-.35,0-.1-.109-.18-.175-.218l-3.668-2.118A1.279,1.279,0,0,0,487.987,144.443Z" fill="#2d81ca"/>
  </g>
</svg>
