<svg id="writing" xmlns="http://www.w3.org/2000/svg" width="18.002" height="20.086" viewBox="0 0 18.002 20.086">
  <g id="Group_47" data-name="Group 47" transform="translate(0)">
    <g id="Group_46" data-name="Group 46">
      <path id="Path_59" data-name="Path 59" d="M106.459,200.785a.785.785,0,0,1,.785-.785h8.082a.785.785,0,0,1,0,1.569h-8.082A.785.785,0,0,1,106.459,200.785Z" transform="translate(-101.242 -192.154)" fill="#2d81ca"/>
      <path id="Path_60" data-name="Path 60" d="M112.152,280a.785.785,0,1,1,0,1.569h-4.908a.785.785,0,1,1,0-1.569Z" transform="translate(-98.069 -269.015)" fill="#2d81ca"/>
      <path id="Path_61" data-name="Path 61" d="M36.731,18.517h2.624a1.571,1.571,0,0,0,1.569-1.569V3.138a1.571,1.571,0,0,0-1.569-1.569H29.708a1.571,1.571,0,0,0-1.569,1.569V7.964a.785.785,0,1,1-1.569,0V3.138A3.142,3.142,0,0,1,29.708,0h9.647a3.142,3.142,0,0,1,3.138,3.138V16.948a3.142,3.142,0,0,1-3.138,3.138H36.731a.785.785,0,0,1,0-1.569Z" transform="translate(-24.492)" fill="#2d81ca"/>
      <path id="Path_62" data-name="Path 62" d="M244.145,272.713a2.356,2.356,0,0,1,3.328,0l4.308,4.3a.785.785,0,0,1,.2.327l.938,3.088a.785.785,0,0,1-.96.984l-3.167-.877a.785.785,0,0,1-.345-.2l-4.3-4.291A2.357,2.357,0,0,1,244.145,272.713Zm5.261,6.363,1.593.441-.466-1.535-2.907-2.9-1.11,1.11Zm-4.152-4.144.152.152,1.11-1.11-.152-.151a.785.785,0,0,0-1.11,1.109Z" transform="translate(-243.457 -261.352)" fill="#2d81ca"/>
      <path id="Path_63" data-name="Path 63" d="M107.244,120h8.082a.785.785,0,0,1,0,1.569h-8.082a.785.785,0,0,1,0-1.569Z" transform="translate(-101.242 -115.292)" fill="#2d81ca"/>
    </g>
  </g>
</svg>
