<svg xmlns="http://www.w3.org/2000/svg" width="22.424" height="17.304" viewBox="0 0 22.424 17.304">
  <g id="envelope" transform="translate(0.5 0.5)">
    <g id="Group_7" data-name="Group 7" transform="translate(0 0)">
      <path id="Path_24" data-name="Path 24" d="M18.808,57.75H2.62A2.622,2.622,0,0,0,0,60.37V71.434a2.622,2.622,0,0,0,2.62,2.62H18.8a2.622,2.622,0,0,0,2.62-2.62V60.374A2.619,2.619,0,0,0,18.808,57.75Zm1.423,13.684a1.425,1.425,0,0,1-1.423,1.423H2.62A1.425,1.425,0,0,1,1.2,71.434V60.374A1.425,1.425,0,0,1,2.62,58.951H18.8a1.425,1.425,0,0,1,1.423,1.423v11.06Z" transform="translate(0 -57.75)" fill="#2d81ca" stroke="#2d81ca" stroke-width="1"/>
      <path id="Path_25" data-name="Path 25" d="M66.856,114.692l5.27-4.733a.6.6,0,0,0-.807-.9l-7.267,6.533-1.418-1.268s-.009-.009-.009-.013a.892.892,0,0,0-.1-.085l-5.769-5.171a.6.6,0,0,0-.8.9l5.332,4.774-5.31,4.979a.606.606,0,0,0-.027.853.615.615,0,0,0,.441.192.6.6,0,0,0,.41-.161l5.39-5.051,1.462,1.308a.6.6,0,0,0,.8,0l1.5-1.349,5.359,5.1a.6.6,0,0,0,.852-.022.606.606,0,0,0-.022-.853Z" transform="translate(-53.329 -106.679)" fill="#2d81ca" stroke="#2d81ca" stroke-width="1"/>
    </g>
  </g>
</svg>
