<svg xmlns="http://www.w3.org/2000/svg" width="34.218" height="34.217" viewBox="0 0 34.218 34.217">
  <g id="google-plus" transform="translate(0)">
    <g id="Group_35" data-name="Group 35" transform="translate(0 0)">
      <circle id="XMLID_30_" cx="17.109" cy="17.109" r="17.109" transform="translate(0 0)" fill="#dc4e41"/>
    </g>
    <g id="Group_37" data-name="Group 37" transform="translate(6.969 11.511)">
      <path id="Path_45" data-name="Path 45" d="M19.521,41.857a6.4,6.4,0,0,0,4.316,6.053,6.315,6.315,0,0,0,6.9-1.84,7.237,7.237,0,0,0,1.3-5.12c-2.042-.018-4.084-.012-6.123-.009,0,.727,0,1.452,0,2.18,1.223.034,2.446.018,3.668.043a3.537,3.537,0,0,1-2.079,2.424,4.044,4.044,0,1,1-2.724-7.609,4.5,4.5,0,0,1,3.785.74c.569-.532,1.1-1.1,1.623-1.675a6.436,6.436,0,0,0-10.669,4.814Z" transform="translate(-19.517 -35.446)" fill="#dc4e41"/>
      <path id="Path_46" data-name="Path 46" d="M74.285,48.668c-.006.608-.012,1.22-.015,1.828-.611.006-1.22.009-1.828.012V52.33c.608,0,1.22.006,1.828.012.006.608.006,1.217.012,1.828.605,0,1.214,0,1.822,0,0-.611.006-1.22.012-1.831l1.828-.009V50.508c-.608,0-1.22-.006-1.828-.012,0-.608-.009-1.22-.012-1.828Z" transform="translate(-57.792 -45.008)" fill="#dc4e41"/>
      <g id="Group_36" data-name="Group 36">
        <path id="Path_47" data-name="Path 47" d="M19.521,41.856a6.436,6.436,0,0,1,10.669-4.815c-.523.575-1.055,1.143-1.623,1.675a4.5,4.5,0,0,0-3.785-.74,4.044,4.044,0,1,0,2.724,7.609,3.538,3.538,0,0,0,2.079-2.424c-1.223-.024-2.445-.009-3.668-.043,0-.727-.006-1.452,0-2.179,2.039,0,4.081-.009,6.123.009a7.235,7.235,0,0,1-1.3,5.12,6.315,6.315,0,0,1-6.9,1.84A6.4,6.4,0,0,1,19.521,41.856Z" transform="translate(-19.517 -35.445)" fill="#fff"/>
        <path id="Path_48" data-name="Path 48" d="M74.285,48.668H76.1c0,.608.009,1.22.012,1.828.608.006,1.22.009,1.828.012V52.33l-1.828.009c-.006.611-.009,1.22-.012,1.831-.608,0-1.217,0-1.822,0-.006-.611-.006-1.22-.012-1.828-.608-.006-1.22-.009-1.828-.012V50.508q.913,0,1.828-.012C74.273,49.888,74.279,49.276,74.285,48.668Z" transform="translate(-57.792 -45.008)" fill="#fff"/>
      </g>
    </g>
  </g>
</svg>
