<svg id="instagram-logo" xmlns="http://www.w3.org/2000/svg" width="27.12" height="27.12" viewBox="0 0 27.12 27.12">
  <g id="Group_4" data-name="Group 4" transform="translate(0 0)">
    <g id="Group_3" data-name="Group 3">
      <path id="Path_9" data-name="Path 9" d="M22.57,25.285a2.71,2.71,0,1,0-2.713-2.715A2.719,2.719,0,0,0,22.57,25.285Z" transform="translate(-9.011 -9.011)" fill="#ca2d2d"/>
      <path id="Path_10" data-name="Path 10" d="M33.506,16.574V13.96h-.34l-2.274.007.009,2.615Z" transform="translate(-14.018 -6.335)" fill="#ca2d2d"/>
      <path id="Path_11" data-name="Path 11" d="M13.56,0A13.56,13.56,0,1,0,27.12,13.56,13.575,13.575,0,0,0,13.56,0Zm7.712,11.978v6.314a2.984,2.984,0,0,1-2.981,2.981H8.829a2.983,2.983,0,0,1-2.981-2.981V8.829A2.983,2.983,0,0,1,8.829,5.849H18.29a2.984,2.984,0,0,1,2.981,2.981Z" transform="translate(0 0)" fill="#ca2d2d"/>
      <path id="Path_12" data-name="Path 12" d="M23.885,23.511a4.218,4.218,0,1,1-8.126-1.582h-2.3v6.314a1.478,1.478,0,0,0,1.478,1.477H24.4a1.478,1.478,0,0,0,1.478-1.477V21.929h-2.3A4.16,4.16,0,0,1,23.885,23.511Z" transform="translate(-6.107 -9.951)" fill="#ca2d2d"/>
    </g>
  </g>
</svg>
