<svg xmlns="http://www.w3.org/2000/svg" width="16.198" height="21.546" viewBox="0 0 16.198 21.546">
  <g id="lock" transform="translate(0.4 0.4)">
    <path id="Path_31" data-name="Path 31" d="M13.777,7.983v-1.9a6.078,6.078,0,0,0-12.156,0v1.9A2.029,2.029,0,0,0,0,9.968v2.3a.405.405,0,0,0,.81,0v-2.3A1.217,1.217,0,0,1,2.026,8.752H13.371a1.217,1.217,0,0,1,1.216,1.216V18.72a1.218,1.218,0,0,1-.81,1.146V17.423a.405.405,0,1,0-.81,0v2.512H2.026A1.217,1.217,0,0,1,.81,18.72v-3.2a.405.405,0,1,0-.81,0v3.2a2.028,2.028,0,0,0,2.026,2.026H13.371A2.028,2.028,0,0,0,15.4,18.72V9.968A2.029,2.029,0,0,0,13.777,7.983ZM4.619,7.942V6.078a3.079,3.079,0,0,1,6.159,0V7.942Zm6.969,0V6.078a3.89,3.89,0,0,0-7.78,0V7.942H2.431V6.078a5.268,5.268,0,0,1,10.535,0V7.942Zm0,0" transform="translate(0)" fill="#2d81ca" stroke="#2d81ca" stroke-width="0.8"/>
    <path id="Path_33" data-name="Path 33" d="M138.312,283.292a1.217,1.217,0,0,0,1.216-1.216v-2.152a2.188,2.188,0,1,0-2.431-.007v2.159A1.217,1.217,0,0,0,138.312,283.292Zm-1.372-5.19a1.378,1.378,0,1,1,2,1.229.4.4,0,0,0-.222.361v2.384a.405.405,0,1,1-.81,0v-2.389a.405.405,0,0,0-.22-.36A1.374,1.374,0,0,1,136.939,278.1Zm0,0" transform="translate(-130.613 -264.734)" fill="#2d81ca" stroke="#2d81ca" stroke-width="0.8"/>
  </g>
</svg>
