<svg xmlns="http://www.w3.org/2000/svg" width="18.593" height="21.105" viewBox="0 0 18.593 21.105">
  <g id="paper-bag" transform="translate(0.5 0.5)">
    <g id="Bag" transform="translate(0)">
      <g id="Group_5" data-name="Group 5">
        <path id="Path_13" data-name="Path 13" d="M18.333,5.6a.628.628,0,0,0-.626-.572H14.566V3.77a3.77,3.77,0,0,0-7.54,0V5.026H3.885a.628.628,0,0,0-.626.572L2,19.42a.629.629,0,0,0,.626.685H18.964a.629.629,0,0,0,.626-.685ZM8.283,3.77a2.513,2.513,0,0,1,5.026,0V5.026H8.283ZM3.317,18.849,4.459,6.283H7.026V7.714a1.257,1.257,0,1,0,1.257,0V6.283h5.026V7.714a1.257,1.257,0,1,0,1.257,0V6.283h2.568l1.142,12.566Z" transform="translate(-2)" fill="#b0b0b0" stroke="#b0b0b0" stroke-width="1"/>
      </g>
    </g>
  </g>
</svg>
