<svg id="twitter-logo-button" xmlns="http://www.w3.org/2000/svg" width="27.12" height="27.12" viewBox="0 0 27.12 27.12">
  <g id="Group_2" data-name="Group 2" transform="translate(0 0)">
    <path id="Path_8" data-name="Path 8" d="M13.56,0A13.56,13.56,0,1,0,27.12,13.56,13.575,13.575,0,0,0,13.56,0Zm6.049,10.456c.006.134.009.27.009.405A8.878,8.878,0,0,1,5.954,18.339a6.3,6.3,0,0,0,4.621-1.292,3.124,3.124,0,0,1-2.916-2.168,3.133,3.133,0,0,0,1.409-.052,3.122,3.122,0,0,1-2.5-3.06c0-.013,0-.027,0-.039a3.108,3.108,0,0,0,1.413.39A3.126,3.126,0,0,1,7.013,7.95a8.862,8.862,0,0,0,6.433,3.262,3.123,3.123,0,0,1,5.318-2.847,6.23,6.23,0,0,0,1.983-.758,3.135,3.135,0,0,1-1.374,1.727,6.2,6.2,0,0,0,1.793-.491A6.278,6.278,0,0,1,19.609,10.456Z" transform="translate(0 0)" fill="#2d81ca"/>
  </g>
</svg>
