<svg xmlns="http://www.w3.org/2000/svg" width="21.105" height="21.105" viewBox="0 0 21.105 21.105">
  <g id="user" transform="translate(0.5 0.5)">
    <g id="Group_6" data-name="Group 6" transform="translate(0)">
      <path id="Path_14" data-name="Path 14" d="M17.161,13a10.014,10.014,0,0,0-3.82-2.4,5.812,5.812,0,1,0-6.577,0A10.069,10.069,0,0,0,0,20.105H1.571a8.482,8.482,0,0,1,16.964,0h1.571A9.987,9.987,0,0,0,17.161,13Zm-7.108-2.944a4.241,4.241,0,1,1,4.241-4.241A4.246,4.246,0,0,1,10.053,10.053Z" transform="translate(0)" fill="#b0b0b0" stroke="#b0b0b0" stroke-width="1"/>
    </g>
  </g>
</svg>
